<?xml version="1.0" standalone="no"?>
<!DOCTYPE svg PUBLIC "-//W3C//DTD SVG 1.1//EN" "http://www.w3.org/Graphics/SVG/1.1/DTD/svg11.dtd" >
<svg>
<metadata>
Created by FontForge 20110222 at Mon Mar  7 10:37:15 2011
 By www-data
Copyright (c) 2007 by Genilson Lima. All rights reserved.
</metadata>
<defs>
<font id="Styllo" horiz-adv-x="398" >
  <font-face 
    font-family="Styllo"
    font-weight="400"
    font-stretch="normal"
    units-per-em="1000"
    panose-1="2 0 0 0 0 0 0 0 0 0"
    ascent="750"
    descent="-250"
    x-height="558"
    cap-height="725"
    bbox="-33 -250 952 1026"
    underline-thickness="50"
    underline-position="-50"
    unicode-range="U+0020-2122"
  />
    <missing-glyph />
    <glyph glyph-name="space" unicode=" " 
 />
    <glyph glyph-name="exclam" unicode="!" horiz-adv-x="305" 
d="M76 715h135v-653h-118zM80 -68q0 28 18 46.5t46 18.5t46.5 -18.5t18.5 -46.5t-18.5 -46t-46.5 -18q-27 0 -45.5 18.5t-18.5 45.5z" />
    <glyph glyph-name="quotedbl" unicode="&#x22;" horiz-adv-x="348" 
d="M217 756h69v-218h-69v218zM53 756h69v-218h-69v218z" />
    <glyph glyph-name="numbersign" unicode="#" horiz-adv-x="647" 
d="M553 208h-155l-51 -136h-83l56 136h-116l-54 -136h-75l57 136h-102v77h131l46 119h-133v73h159l55 127h80l-52 -127h121l62 127h78l-62 -127h105q-1 -8 -1 -14v-59h-139l-52 -119h125v-77zM235 285h116l51 119h-115z" />
    <glyph glyph-name="dollar" unicode="$" horiz-adv-x="467" 
d="M187 4h-6q-77 0 -156 14l11 72q70 -11 130 -11h21v253q-67 22 -109 63q-50 49 -50 113q0 95 85 148q30 19 74 30v99h73v-91q5 1 11 1h10q50 0 113 -9l-12 -74q-46 8 -103 8h-9q-5 0 -10 -1v-232q126 -47 167 -142q13 -30 13 -60q0 -23 -12 -63q-16 -49 -77 -84
q-34 -20 -91 -29v-108h-73v103zM367 183q0 73 -107 124v-219q107 26 107 95zM101 511q0 -68 86 -100v197q-86 -27 -86 -97z" />
    <glyph glyph-name="percent" unicode="%" horiz-adv-x="758" 
d="M27 579q0 69 48.5 119t116.5 50q69 0 119 -50t50 -119t-50 -117t-119 -48t-117 48t-48 117zM87 578q0 -41 32 -74.5t73 -33.5q42 0 76.5 33t34.5 75t-34 75.5t-77 33.5q-41 0 -73 -33.5t-32 -75.5zM398 175q0 69 48.5 119t116.5 50q69 0 119 -50t50 -119t-50 -117
t-119 -48t-117 48t-48 117zM458 174q0 -41 32 -74.5t73 -33.5q42 0 76.5 33t34.5 75t-34 75.5t-77 33.5q-41 0 -73 -33.5t-32 -75.5zM489 737h110l-340 -737h-110z" />
    <glyph glyph-name="ampersand" unicode="&#x26;" horiz-adv-x="610" 
d="M534 327q18 -18 32 -52q14 -37 14 -67q0 -45 -74 -101q23 -47 23 -119q0 -56 -30 -99.5t-82 -63.5q-32 -11 -63 -11q-102 0 -130 89q-5 16 -5 19q0 8 7 8q3 0 42.5 -17.5t67.5 -17.5q29 0 53 18q10 7 30 25q21 27 21 62q0 21 -9 48q-69 -57 -163 -57q-89 0 -155 48
q-71 54 -71 139q0 92 55 160q44 53 113 82q-46 44 -46 112q0 43 25 84q17 28 60 53.5t88 25.5q42 0 80 -31q48 -40 48 -112q0 -104 -121 -156q76 -92 106 -154q9 -21 18 -45q44 25 54 55zM293 601q-44 -39 -44 -77q0 -49 47 -54q61 0 83 63q6 17 6 32q0 23 -21.5 36
t-44.5 11q-16 -2 -26 -11zM382 148q-23 80 -110 183q-89 -21 -122 -96q-10 -23 -10 -45q0 -38 26 -64q31 -33 86 -33q86 0 130 55z" />
    <glyph glyph-name="quotesingle" unicode="'" horiz-adv-x="184" 
d="M53 756h69v-218h-69v218z" />
    <glyph glyph-name="parenleft" unicode="(" horiz-adv-x="416" 
d="M307 -209q-161 138 -203 363q-13 69 -13 140q0 154 56 293q59 146 167 246l96 2q-89 -108 -141 -242q-54 -141 -54 -275q0 -322 189 -529z" />
    <glyph glyph-name="parenright" unicode=")" horiz-adv-x="427" 
d="M10 -211q189 209 189 529q0 134 -54 274q-52 135 -141 243l96 -2q108 -100 167 -246q56 -140 56 -293q0 -146 -54 -276q-56 -136 -162 -227z" />
    <glyph glyph-name="asterisk" unicode="*" horiz-adv-x="367" 
d="M180 698q31 -3 31 -44q0 -18 -3 -49q-4 -35 -4 -50q26 27 84 77q14 10 25 10q10 0 19.5 -12.5t9.5 -23.5q0 -17 -28 -37t-80 -59q36 -13 101 -48q11 -9 11 -20q0 -13 -9.5 -23t-22.5 -10q-16 0 -55 19q-28 15 -55 29q0 -28 -4 -81.5t-26 -53.5q-4 0 -10.5 5t-13.5 5
t-7 65q0 39 3 60q-23 -15 -72 -40q-13 -6 -25 -6q-32 0 -32 37q0 20 45 38q24 8 62 24q-34 20 -94 68q-10 10 -10 21q0 12 10.5 21.5t22.5 9.5q20 0 49 -27q15 -17 46 -48v10q0 12 -1 34.5t-1 34.5q0 64 30 64h4z" />
    <glyph glyph-name="plus" unicode="+" horiz-adv-x="555" 
d="M492 377v-99h-173v-173h-99v173h-174v99h174v174h99v-174h173z" />
    <glyph glyph-name="comma" unicode="," horiz-adv-x="238" 
d="M48 74q15 15 48 15q37 0 60 -23t23 -60q0 -39 -34 -76q-31 -29 -62 -59l-33 22q54 64 54 96q0 21 -30 21q-13 0 -16 -3v1z" />
    <glyph glyph-name="hyphen" unicode="-" horiz-adv-x="470" 
d="M72 313h332v-111h-332v111z" />
    <glyph glyph-name="hyphen" unicode="&#x2010;" horiz-adv-x="470" 
d="M72 313h332v-111h-332v111z" />
    <glyph glyph-name="period" unicode="." horiz-adv-x="211" 
d="M40 50q0 29 21 49.5t50 20.5t49.5 -20.5t20.5 -49.5t-20.5 -50t-49.5 -21t-50 21t-21 50z" />
    <glyph glyph-name="slash" unicode="/" horiz-adv-x="540" 
d="M437 727h74l-422 -739h-74z" />
    <glyph glyph-name="zero" unicode="0" horiz-adv-x="611" 
d="M47 377q0 165 75 275q71 105 168 105q100 0 171 -105q73 -110 73 -275q0 -169 -58 -266q-43 -71 -112 -98q-37 -15 -74 -15q-108 0 -177 118q-66 111 -66 261zM138 377q0 -91 30 -178q39 -113 122 -113q71 0 112 87q39 82 39 204q0 126 -41 210q-44 90 -110 90
q-69 0 -112 -94q-40 -85 -40 -206z" />
    <glyph glyph-name="one" unicode="1" horiz-adv-x="330" 
d="M32 568q38 22 81 88q31 47 53 94h84v-751h-86v603q-45 -64 -100 -96z" />
    <glyph glyph-name="two" unicode="2" horiz-adv-x="586" 
d="M59 603q29 67 92.5 108t137.5 41q113 0 181 -52q76 -60 76 -174q0 -68 -34 -133q-50 -94 -196 -185q-69 -43 -78 -49q-45 -31 -71 -58h362v-102h-427q-19 0 -43 21q-19 17 -19 35q0 73 265 257q82 57 113 112q22 39 22 95q0 70 -49 108q-45 35 -117 35q-111 0 -159 -107z
" />
    <glyph glyph-name="three" unicode="3" horiz-adv-x="475" 
d="M295 379q95 -45 127 -115q13 -28 13 -63q0 -87 -44 -133q-39 -41 -131 -57q-71 -13 -198 -13h-10q-6 0 -11 2l4 78q22 -2 43 -2q124 0 182 27q66 29 66 94q0 100 -122 131q-39 9 -87 9h-23l-1 7h-3l2 30v48h2v4q22 -2 44 -2q74 0 122 26q62 32 62 100q0 107 -143 124
q-39 4 -76 4q-25 0 -60 -5l-3 76q60 3 94 3q106 0 180 -33q105 -48 105 -170q0 -79 -84 -139q-25 -18 -50 -31z" />
    <glyph glyph-name="four" unicode="4" horiz-adv-x="591" 
d="M547 272h-49v-273h-89v275h-389l200 437l86 -25l-44 -100q-26 -60 -78 -179l-28 -62h253v406h89v-405h49v-74z" />
    <glyph glyph-name="five" unicode="5" horiz-adv-x="514" 
d="M474 319q10 -34 10 -82q0 -97 -56 -155q-80 -83 -254 -83h-58q-34 0 -40.5 1.5t-15.5 2.5h-7v84q18 0 55 -2t56 -2q151 0 198 73q20 32 20 86q0 71 -57 112q-51 36 -124 36q-84 0 -119 -7q-17 -4 -42 -10v377h338v-75h-257v-208l68 8q109 0 172 -30q77 -37 113 -126z" />
    <glyph glyph-name="six" unicode="6" horiz-adv-x="564" 
d="M299 480q97 0 158 -58q72 -69 72 -192q0 -101 -70.5 -165.5t-171.5 -64.5q-104 0 -167 61q-69 67 -82 191q-3 29 -3 47q0 222 104 343q99 115 273 115v-84q-249 -16 -284 -264q42 39 79.5 55t91.5 16zM288 85q63 0 106.5 45t43.5 107t-44 106.5t-106 44.5
q-63 0 -107.5 -44.5t-44.5 -106.5q0 -63 44.5 -107.5t107.5 -44.5z" />
    <glyph glyph-name="seven" unicode="7" horiz-adv-x="522" 
d="M512 756l-325 -755l-114 1l90 206q45 103 83 193l67 158q29 68 42 101h-329v96h486z" />
    <glyph glyph-name="eight" unicode="8" horiz-adv-x="557" 
d="M421 404q48 -17 79 -78q27 -55 27 -113q0 -152 -132 -201q-47 -18 -116 -18q-127 0 -191 66q-58 58 -58 156q0 59 28 109.5t78 78.5q-66 49 -66 162q0 76 64 136.5t145 60.5t146 -59t65 -138q0 -126 -69 -162zM279 687q-53 0 -90.5 -34.5t-37.5 -86.5q0 -54 37.5 -91
t90.5 -37q54 0 91 37.5t37 90.5t-38 87t-90 34zM276 68q61 0 104 44t43 105t-43.5 104t-103.5 43t-104 -43.5t-44 -103.5q0 -61 44 -105t104 -44z" />
    <glyph glyph-name="nine" unicode="9" horiz-adv-x="580" 
d="M273 272q-97 0 -158 59q-72 68 -72 191q0 101 72 167q69 63 170 63q104 0 167 -61q69 -67 82 -190q3 -30 3 -48q0 -222 -103 -342q-100 -116 -274 -116v84q250 17 261 258q-69 -65 -148 -65zM284 667q-63 0 -106.5 -45t-43.5 -107t44 -106.5t106 -44.5q63 0 107.5 44.5
t44.5 106.5q0 63 -45 107.5t-107 44.5z" />
    <glyph glyph-name="colon" unicode=":" horiz-adv-x="254" 
d="M55 65q0 29 19.5 49t48.5 20q28 0 48.5 -20.5t20.5 -48.5q0 -29 -20 -48.5t-49 -19.5q-30 0 -49 19t-19 49zM60 415q0 29 20 49t49 20t49 -20t20 -49t-20 -50t-49 -21t-49 21t-20 50z" />
    <glyph glyph-name="semicolon" unicode=";" horiz-adv-x="237" 
d="M47 71q23 23 61 23q48 0 66 -44q6 -16 6 -40q0 -59 -65 -125l-30 -29l-36 24q58 68 58 104q0 22 -32 22q-16 0 -17 -3v1zM55 407q0 26 18.5 45.5t44.5 19.5q27 0 46 -19t19 -46t-19 -45.5t-46 -18.5t-45 18.5t-18 45.5z" />
    <glyph glyph-name="less" unicode="&#x3c;" horiz-adv-x="745" 
d="M25 364l652 333v-138l-421 -195l421 -225v-139z" />
    <glyph glyph-name="equal" unicode="=" horiz-adv-x="505" 
d="M49 190h397v-83h-397v83zM49 411h397v-83h-397v83z" />
    <glyph glyph-name="greater" unicode="&#x3e;" horiz-adv-x="758" 
d="M47 0v139l421 225l-421 195v138l652 -333z" />
    <glyph glyph-name="question" unicode="?" horiz-adv-x="543" 
d="M71 643q80 74 196 74q96 0 157 -60t61 -154q0 -144 -164 -223q-46 -22 -66 -42q-29 -28 -30 -70l-2 -107l-99 -1q0 21 2 56q3 42 3 56q3 97 69 152q22 19 60 39q53 28 63 35q66 41 66 100q0 63 -40 96q-35 29 -88 29q-85 0 -153 -57zM112 -67q0 26 17.5 44.5t43.5 18.5
t44 -18.5t18 -44.5q0 -25 -18.5 -43t-43.5 -18t-43 18t-18 43z" />
    <glyph glyph-name="at" unicode="@" horiz-adv-x="863" 
d="M490 757q144 0 235 -91q88 -88 88 -222q0 -67 -22 -130q-18 -52 -72.5 -93.5t-109.5 -41.5q-66 0 -97 66q-73 -49 -136 -49q-56 0 -88 39q-30 36 -30 92q0 88 72 158t153 70q70 0 87 -69q30 0 44 -13l18 -19q0 -42 -36 -89t-36 -69q0 -32 35 -32q43 0 84 40q47 45 47 111
q0 99 -64 175q-67 80 -164 80q-107 0 -206 -79q-94 -75 -126 -169q-21 -62 -21 -124q0 -78 36 -139q38 -64 107 -93q43 -19 94 -19q88 0 186 56l37 -73q-108 -63 -216 -63q-145 0 -241.5 97t-96.5 240q0 181 121 308q55 57 128 94q102 51 190 51zM465 304q22 18 51 70
q31 56 31 90q0 24 -26 24q-47 0 -109 -48q-57 -45 -59 -76q-11 -22 -11 -39q0 -24 17 -38.5t41 -14.5q36 0 65 32z" />
    <glyph glyph-name="A" unicode="A" horiz-adv-x="725" 
d="M629 116q26 -51 51 -56q7 -2 13 -2h10l-50 -92q-26 6 -55 21q-32 17 -44 50l-80 213h-258l-84 -249h-112l263 723h128zM444 337l-99 304l-100 -304h199z" />
    <glyph glyph-name="B" unicode="B" horiz-adv-x="599" 
d="M287 729q226 1 226 -195q0 -114 -89 -147q-1 0 -1 -1q126 -32 126 -193q0 -99 -77 -148q-64 -41 -150 -41q-100 0 -142 26q-2 -1 -2.5 -1.5t-2.5 -1.5q-15 -20 -36 -30q-36 -18 -41 -21l-48 83q4 3 20 11q10 5 18 18q19 33 19 143v497zM208 111q45 -12 89 -12
q62 0 100 25q44 30 44 87q0 50 -43 80q-35 25 -89 32q-36 4 -67 4h-17q-11 -1 -17 -1v-215zM208 426q8 -1 16 -1h15q117 0 159 54q16 20 16 52q0 71 -96 96q-34 8 -81 8h-14q-10 -1 -15 -1v-208z" />
    <glyph glyph-name="C" unicode="C" horiz-adv-x="587" 
d="M527 98q-35 -60 -96 -81q-45 -16 -109 -16q-97 0 -165 61q-62 57 -89 153q-18 64 -18 139q0 166 84 272q78 98 188 98q166 0 215 -118l-58 -92q-22 61 -80 89q-36 17 -77 17q-62 0 -116 -80q-57 -84 -57 -192q0 -109 55 -181q51 -69 118 -69q55 0 101 38q18 15 33 39z
" />
    <glyph glyph-name="D" unicode="D" horiz-adv-x="635" 
d="M262 722q170 0 257 -109q76 -96 76 -265q0 -157 -80 -257q-74 -92 -178 -92q-74 0 -141 16q-25 6 -44 14q-15 -19 -62 -52l-44 82q-2 2 -6 5q1 0 2 1h1l-1 2q37 21 43 74q2 22 2 57l1 524h174zM318 101q127 12 165 157q11 42 11 88q0 160 -80 225q-65 52 -210 52h-9
q-5 0 -10 -1v-404q-1 -5 -1 -9v-29q0 -3 -1 -8v-29q0 -10 -1 -19q39 -16 106 -21q17 -2 30 -2z" />
    <glyph glyph-name="E" unicode="E" horiz-adv-x="545" 
d="M377 717q37 0 65 12q2 0 7 4.5t9 4.5l47 -81q-40 -33 -63 -34q-8 -1 -18 -3h-241q1 -23 1 -41v-33v-55q-1 -37 -1 -55h231v-104h-231q0 -28 -1 -84t-1 -84q0 -32 -3 -54q29 -13 75 -13h225v-96q-50 0 -149 -2h-50h-38q-53 0 -99 20q-20 -20 -54 -42l-48 90q37 21 43 74
q2 22 2 57v519h292z" />
    <glyph glyph-name="F" unicode="F" horiz-adv-x="545" 
d="M377 717q37 0 65 12q2 0 7 4.5t9 4.5l47 -81q-40 -33 -63 -34q-8 -1 -18 -3h-241q1 -23 1 -41v-33v-55q-1 -37 -1 -55h231v-104h-231q0 -28 -1 -84t-1 -84v-40q0 -8 -2 -14v-9q0 -67 -91 -124l-48 90q37 21 43 74q2 22 2 57v519h292z" />
    <glyph glyph-name="G" unicode="G" horiz-adv-x="784" 
d="M704 354q-1 0 -2 -1h-1q0 -4 27 -37q13 -16 26 -33q-15 -36 -64 -36q-13 0 -31 3q-15 -118 -88.5 -183.5t-192.5 -65.5q-174 0 -264 121q-74 100 -74 256q0 147 90 244q94 102 243 102q209 0 279 -183l-92 -38q-28 75 -109 107q-30 11 -69 11q-111 0 -177.5 -67
t-66.5 -176q0 -115 64 -195q69 -86 180 -86q69 0 119 47t60 115q-26 8 -36 8q-29 0 -54 -36l-56 59q36 66 98 66q17 0 68 -8.5t77 -8.5q31 0 46 15z" />
    <glyph glyph-name="H" unicode="H" horiz-adv-x="636" 
d="M586 725v-583q0 -80 -35 -121q-23 -26 -74 -42l-50 92q29 13 41 30q21 30 21 102v128h-107q-22 0 -66 1h-66h-42v-190q0 -81 -34 -121q-23 -26 -74 -42l-50 92q29 13 41 30q21 30 21 102v522h97v-105v-67q-1 -44 -1 -66v-59h281v297h97z" />
    <glyph glyph-name="I" unicode="I" horiz-adv-x="269" 
d="M191 725q-2 -103 -2 -182l1 -550h-96v732h97z" />
    <glyph glyph-name="J" unicode="J" horiz-adv-x="522" 
d="M472 725v-447q0 -171 -77 -236q-53 -45 -149 -45q-139 0 -190 93q-21 36 -21 94l91 15q2 -51 40 -75q29 -19 73 -19q95 0 124 88q11 35 11 92v440h98z" />
    <glyph glyph-name="K" unicode="K" horiz-adv-x="612" 
d="M191 723l2 -290q3 -1 15 -1q89 0 143 96q23 40 35 85q13 52 13 79v13h103q-10 -152 -77 -263q-25 -42 -60 -61q59 0 99 -59q42 -64 42 -158v-12q-1 -7 -1 -11q10 -48 42 -63q8 -4 15 -7l-50 -92q-77 23 -98 90q-10 29 -10 74q0 59 -48 117q-57 67 -140 67h-11
q-6 0 -12 -1l-2 -186q-1 -94 -51 -135q-18 -15 -42 -30l-48 90q37 21 43 74q2 22 2 57v527h96z" />
    <glyph glyph-name="L" unicode="L" horiz-adv-x="569" 
d="M131 717h21q14 -1 21 -1h10q6 1 9 1v-548q0 -37 -4 -54q29 -13 75 -13h266v-101h-21q-65 -2 -119 -2h-138q-53 0 -99 20q-20 -20 -54 -42l-48 90q37 21 43 74q2 22 2 57v519h36z" />
    <glyph glyph-name="M" unicode="M" horiz-adv-x="822" 
d="M721 170q0 -24 9 -48q11 -33 34 -45q9 -5 18 -9l-50 -92q-42 13 -62 31q-24 20 -36 58q-10 29 -10 74v346q0 60 -1 138l-185 -426h-58l-182 427v-485q0 -81 -34 -121q-23 -26 -74 -42l-50 92q29 13 41 30q21 30 21 102v525h137l176 -405l172 405h134v-555z" />
    <glyph glyph-name="N" unicode="N" horiz-adv-x="685" 
d="M583 -1h-119l-266 611v-468q0 -81 -34 -121q-23 -26 -74 -42l-50 92q29 13 41 30q21 30 21 102v521h156l229 -531l1 357v15q-1 9 -1 14v5q0 80 35 120q24 28 73 43l50 -92q-21 -12 -23 -13q-10 -6 -17 -17q-22 -29 -22 -102v-524z" />
    <glyph glyph-name="O" unicode="O" horiz-adv-x="668" 
d="M50 362q-1 144 63 252q76 127 213 127q150 0 226 -112q66 -100 66 -263q0 -161 -75 -261q-80 -107 -211 -107q-97 0 -168 66q-63 59 -93 157q-20 68 -21 141zM149 359q0 -71 41 -149q52 -102 142 -102q73 0 123 63q56 70 56 188q0 93 -40 175q-50 103 -139 103
q-76 0 -122 -61q-51 -67 -60 -179q-2 -26 -2 -38v-10q1 1 1 10z" />
    <glyph glyph-name="P" unicode="P" horiz-adv-x="597" 
d="M191 722q27 0 80 1h80q140 0 187 -106q19 -43 19 -113q0 -113 -52 -164q-48 -47 -145 -47h-44q-24 0 -46 1l-43 1q-21 0 -36 1v-143q0 -80 -21 -119q-18 -33 -72 -68l-48 90q37 21 43 74q2 22 2 57v535h96zM443 445q16 22 16 64q0 68 -61 95q-40 17 -113 17h-67
q-9 0 -27 2v-220l30 -1q9 -1 16 -1q99 0 111 1q68 7 95 43z" />
    <glyph glyph-name="Q" unicode="Q" horiz-adv-x="752" 
d="M702 -1q-10 -4 -31 -4q-38 0 -83 55q-12 14 -25 28q-70 -80 -205 -80q-148 0 -235 105q-83 98 -83 260q0 207 115 305q80 67 208 67q155 0 238 -117q72 -103 70 -253q-2 -102 -63 -212q39 -50 64 -50q5 0 19 3zM358 102q77 -2 129 54q-28 23 -58 23q-6 0 -14 -2l-25 64
q17 7 38 7q51 0 86 -26q1 -4 10 -13q38 65 38 154q0 117 -44 184q-52 78 -160 78q-106 0 -161 -74q-51 -69 -51 -181q0 -182 111 -242q44 -24 101 -26z" />
    <glyph glyph-name="R" unicode="R" horiz-adv-x="680" 
d="M353 723q113 0 174 -56q53 -50 53 -126q0 -72 -47.5 -125t-117.5 -57q105 -11 148 -122q14 -39 16 -90q10 -48 45 -68q9 -5 16 -8l-50 -92q-62 19 -86 59q-18 32 -22 101q-5 81 -82 137q-72 52 -170 52q-19 0 -37 -2l-2 -186q-1 -94 -51 -135q-18 -15 -42 -30l-48 90
q37 21 43 74q2 22 2 57v527h258zM192 638v-205l138 -2q65 -1 111 35q38 30 38 71q0 37 -36 67q-42 34 -112 34h-139z" />
    <glyph glyph-name="S" unicode="S" horiz-adv-x="598" 
d="M543 210q0 -41 -20 -85q-38 -80 -136 -113q-49 -17 -111 -17q-96 0 -183 20q-26 6 -40 13v101h7q59 -32 169 -37q30 -2 57 -2q110 0 154 75q12 21 12 44q0 56 -50 80q-27 13 -99 24q-110 15 -165 51q-75 47 -88 154q7 148 147 201q47 18 110 18q124 0 191 -40v-113h-4
q-74 60 -196 60q-48 0 -99 -31q-57 -35 -57 -81q0 -56 61 -80q35 -14 91 -26q47 -11 94 -21q72 -18 112 -67q42 -53 43 -128z" />
    <glyph glyph-name="T" unicode="T" horiz-adv-x="638" 
d="M618 655q-22 -18 -72 -27q-40 -7 -91 -7q-42 0 -87 8v-440q0 -117 -41 -164q-13 -16 -34 -27q-29 -16 -37 -22l-36 96q39 34 48 66q5 19 5 82v407q-50 5 -78 5q-90 0 -132 -30l-43 86q58 43 183 43q35 0 90 -4q77 -5 91 -5q32 -2 74 -2q58 0 97 8q13 2 19 7z" />
    <glyph glyph-name="U" unicode="U" horiz-adv-x="772" 
d="M722 640q-21 -12 -23 -13q-10 -6 -17 -17q-22 -29 -22 -102v-207q0 -300 -273 -300q-145 0 -212 79q-63 73 -63 221v207q0 73 -21 102q-10 13 -21 19l-20 11l50 92q70 -21 98 -99q10 -32 10 -64l-2 -271q-1 -200 181 -200q177 0 177 197v274q0 99 69 145q19 12 39 18z
" />
    <glyph glyph-name="V" unicode="V" horiz-adv-x="661" 
d="M439 591q46 95 110 135l72 -83q-61 -26 -90 -102l-216 -560l-275 713l107 24l168 -497z" />
    <glyph glyph-name="W" unicode="W" horiz-adv-x="972" 
d="M952 716l-284 -727q-35 70 -63 123l-89 169q-18 33 -33 65q-22 -50 -70 -137q-58 -104 -113 -214l-280 727l103 -3l209 -515q17 43 55 112q43 80 57 111q-81 173 -124 192l-9 102q39 -3 65 -25q44 -39 107 -163q64 127 111 167q29 25 66 25l-11 -101q-40 -16 -126 -197
q16 -37 58 -115q41 -74 57 -116q42 110 89 230l57 143q29 74 57 147h111z" />
    <glyph glyph-name="X" unicode="X" horiz-adv-x="707" 
d="M667 89q-14 -65 -28 -88q-8 -14 -17 -14q-26 0 -95 94q-55 77 -168 231q-56 -77 -169 -231q-69 -94 -97 -94q-11 0 -21 14q-19 23 -31 87l-1 -1q0 -1 1 -1q10 0 79.5 85.5t158.5 213.5l-233 301l98 50l215 -275l209 275l93 -50l-26 -36q-16 -23 -36 -50l-42 -57
q-22 -30 -43 -58l-41 -55q-20 -26 -35 -45q51 -67 90 -121l66 -94q57 -81 70 -81h3z" />
    <glyph glyph-name="Y" unicode="Y" horiz-adv-x="542" 
d="M502 726q-15 -115 -50 -343q-33 -188 -87 -280q-67 -116 -180 -116h-4q-3 1 -4 1l4 100q67 3 110 89q22 46 33 87q5 19 8 29q-30 -7 -50 -7q-60 0 -112 34q-73 47 -75 149q-1 78 -23 125q-15 31 -32 34l26 101q45 -5 78 -58q42 -67 46 -191q1 -41 26.5 -67t65.5 -26
q38 0 73 23l46 316h101z" />
    <glyph glyph-name="Z" unicode="Z" horiz-adv-x="669" 
d="M629 57q-27 -45 -132 -57q-38 -4 -153 -4h-72q-47 1 -71 1h-161q60 89 120 180l208 314q42 63 66 98h-366v107h543l-227 -352q-51 -81 -157 -238h222q71 0 97 23q8 7 17 17z" />
    <glyph glyph-name="bracketleft" unicode="[" horiz-adv-x="429" 
d="M83 812h320v-80h-212v-758h214v-84h-322v922z" />
    <glyph glyph-name="backslash" unicode="\" horiz-adv-x="457" 
d="M452 0h-110l-340 735h110z" />
    <glyph glyph-name="bracketright" unicode="]" horiz-adv-x="482" 
d="M365 -110h-322v82h214v761h-212v79h320v-922z" />
    <glyph glyph-name="asciicircum" unicode="^" horiz-adv-x="434" 
d="M396 648q-66 0 -121 27q-41 20 -60 44q-26 -26 -70 -47q-54 -25 -111 -25v77q49 0 107 37q54 35 54 50v-1l24 37l20 -40q6 -28 56.5 -55t100.5 -27v-77z" />
    <glyph glyph-name="underscore" unicode="_" horiz-adv-x="826" 
d="M92 1h649v-85h-649v85z" />
    <glyph glyph-name="grave" unicode="`" horiz-adv-x="259" 
d="M230 543h-86l-143 177h117z" />
    <glyph glyph-name="a" unicode="a" horiz-adv-x="623" 
d="M237 -10q-76 0 -126.5 49.5t-50.5 124.5q0 118 106 162q70 29 266 41v13q0 59 -41 84q-34 19 -105 19q-78 0 -172 -53h-6v94q50 27 129 38q26 3 50 3q117 0 174 -41q62 -47 63 -148l1 -178q0 -33 1 -47q2 -29 8 -46q8 -23 34 -38l-46 -90q-67 43 -83 94l-7 -7
q-60 -45 -99.5 -59.5t-95.5 -14.5zM261 275q-106 -23 -106 -105q0 -94 114 -94q77 0 160 62v154q-20 -1 -44 -3q-42 -3 -124 -14z" />
    <glyph glyph-name="b" unicode="b" horiz-adv-x="604" 
d="M191 725v-233q51 66 147 66q122 0 174 -90q42 -73 42 -209q0 -125 -46 -187q-53 -71 -173 -71q-92 0 -154 68q-15 -49 -83 -92l-48 90q37 21 43 74q2 22 2 57v527h96zM438 161q21 46 21 106q0 203 -137 203q-43 0 -79 -21t-51 -59v-224q17 -55 87 -69q20 -4 41 -4
q86 0 118 68z" />
    <glyph glyph-name="c" unicode="c" horiz-adv-x="566" 
d="M516 88q-24 -40 -94 -68q-60 -24 -117 -24q-120 0 -190 84q-65 76 -65 197q0 142 78 220q70 70 183 70q53 0 113 -25q64 -27 87 -65l-55 -73q-25 30 -65.5 50.5t-79.5 20.5q-107 0 -148 -113q-14 -37 -14 -85q0 -56 25 -104q28 -51 76 -74q29 -14 61 -14q29 0 71 16
q49 19 71 50z" />
    <glyph glyph-name="d" unicode="d" horiz-adv-x="655" 
d="M50 272q0 83 37 154q40 76 110 112q43 22 90 22q90 0 141 -45q13 -12 19 -24v234h96v-522q0 -72 22 -102q11 -17 40 -30l-50 -92q-76 18 -98 88q-45 -58 -118 -68q-19 -2 -33 -2q-113 0 -180 67q-76 74 -76 208zM278 93q16 -4 35 -4q98 0 134 75v228q-23 56 -100 73
q-22 5 -43 5q-103 0 -142 -111q-14 -38 -14 -92q0 -87 63 -141q29 -26 67 -33z" />
    <glyph glyph-name="e" unicode="e" horiz-adv-x="620" 
d="M561 265h-410q0 -181 193 -181q80 0 143 35q18 10 30 21h5v-97q-101 -45 -177 -45q-136 0 -212 72.5t-76 207.5q0 134 72.5 212.5t192.5 78.5q239 0 239 -246v-58zM472 343q0 150 -155 150q-109 0 -150 -90q-13 -28 -16 -60h321z" />
    <glyph glyph-name="f" unicode="f" horiz-adv-x="403" 
d="M136 569q0 90 52 129q40 31 117 31q39 0 86 -7l-16 -89q-32 4 -57 4q-43 0 -62 -17q-24 -22 -24 -71v-52h108l-10 -78h-98v-255q0 -80 -21 -119q-18 -33 -72 -68l-48 90q37 21 43 74q2 22 2 57v221h-80l11 78h69v72z" />
    <glyph glyph-name="g" unicode="g" horiz-adv-x="654" 
d="M594 -35q0 -105 -46 -156q-52 -55 -165 -58q-110 -3 -158 35q-42 34 -44 117l101 -1q2 -38 33 -49q16 -6 65 -6q58 0 86 23q34 29 35 95l2 120q-18 -45 -77 -65q-45 -15 -123 -15q-107 0 -177 81q-66 76 -66 184q0 130 80.5 212t217.5 82q44 0 89 -14q53 -17 77 -47
l-31 -95q-30 43 -110 56q-24 3 -46 3q-61 0 -117 -54q-60 -58 -60 -131q0 -87 54 -136q47 -43 118 -43q117 0 157 114q13 37 13 86h92v-338z" />
    <glyph glyph-name="h" unicode="h" horiz-adv-x="670" 
d="M548 203q0 -72 22 -102q11 -17 40 -30l-50 -92q-42 13 -64 32t-34 57q-10 28 -10 74l-1 209q-6 65 -28 92.5t-83 27.5q-65 0 -140 -53v-254q0 -80 -21 -119q-18 -33 -72 -68l-48 90q37 21 43 74q2 22 2 57v527h96v-229q83 62 165 62q93 0 140 -57q43 -53 43 -148v-150z
" />
    <glyph glyph-name="i" unicode="i" horiz-adv-x="314" 
d="M80 678q0 22 15.5 37.5t37.5 15.5t37.5 -15.5t15.5 -37.5t-15.5 -37.5t-37.5 -15.5t-37.5 15.5t-15.5 37.5zM182 538v-335q0 -72 22 -102q11 -17 40 -30l-50 -92q-42 13 -62 31q-24 20 -36 58q-10 29 -10 74v-17v5q-1 5 -1 20v388h97z" />
    <glyph glyph-name="j" unicode="j" horiz-adv-x="346" 
d="M157 402q0 71 7 103q15 60 60 75l62 -85q-23 -7 -29 -21q-4 -9 -4 -36q-1 -22 -1 -59v-343q0 -114 -16 -159q-31 -86 -129 -87q-58 -1 -92 15v106q8 -4 36 -11q18 -4 37 -4q60 0 67 92q2 26 2 50v364zM158 694q0 22 14.5 37.5t35.5 15.5q23 0 38 -15t15 -38
q0 -21 -15.5 -35.5t-37.5 -14.5q-20 0 -35 15t-15 35z" />
    <glyph glyph-name="k" unicode="k" horiz-adv-x="587" 
d="M201 723l2 -400q18 -2 32 -2q76 0 103 44q12 20 16 48q6 41 6 60v13h103q-6 -89 -10 -106q-15 -53 -68 -75q59 -3 90 -82q5 -73 5 -82q10 -48 42 -63q8 -4 15 -7l-50 -92q-76 23 -97 88q-10 29 -11 72q-1 66 -76 87q-29 8 -74 8h-12q-7 0 -14 -2q-2 -55 -12 -165
q-15 -49 -83 -92l-48 90q37 21 43 74q2 22 2 57v527h96z" />
    <glyph glyph-name="l" unicode="l" horiz-adv-x="329" 
d="M182 725v-522q0 -72 22 -102q11 -17 40 -30l-50 -92q-42 13 -62 31q-24 20 -36 58q-10 29 -10 74v26v77q-1 51 -1 77v403h97z" />
    <glyph glyph-name="m" unicode="m" horiz-adv-x="979" 
d="M433 0l1 351q-6 65 -27 90q-25 30 -86 30q-58 0 -140 -58v-249q0 -80 -21 -119q-18 -33 -72 -68l-48 90q37 21 43 74q2 22 2 57v365h96v-67q90 67 165 67q109 0 157 -88l26 21q83 67 165 67q92 0 140 -60q43 -55 43 -150v-150q0 -72 22 -102q11 -17 40 -30l-50 -92
q-41 12 -63 31.5t-35 57.5q-10 28 -10 74l-2 209q0 19 -8 54q-16 66 -102 66q-58 0 -140 -58v-413h-96z" />
    <glyph glyph-name="n" unicode="n" horiz-adv-x="651" 
d="M539 203q0 -72 22 -102q11 -17 40 -30l-50 -92q-42 13 -64 32t-34 57q-10 28 -10 74l-1 209q-6 65 -28 92.5t-83 27.5q-65 0 -140 -53v-254q0 -80 -21 -119q-18 -33 -72 -68l-48 90q37 21 43 74q2 22 2 57v365h96v-67q83 62 165 62q93 0 140 -57q43 -53 43 -148v-150z
" />
    <glyph glyph-name="o" unicode="o" horiz-adv-x="610" 
d="M50 274q0 138 73 218q67 75 180 74q126 -1 194 -82q63 -76 63 -210q0 -127 -63 -200q-68 -80 -194 -80q-80 0 -140.5 40t-90.5 113q-22 53 -22 127zM146 274q0 -83 50 -138q45 -49 107 -49q73 0 120 59q45 54 45 128q0 93 -47 149.5t-123 55.5q-67 -1 -109.5 -57
t-42.5 -148z" />
    <glyph glyph-name="p" unicode="p" horiz-adv-x="652" 
d="M201 561v-81q27 38 72.5 62t91.5 24q88 0 149 -58q78 -77 78 -227q0 -141 -67 -214q-61 -67 -160 -67q-74 0 -130 44q-19 15 -34 36v-143q0 -80 -21 -120q-18 -32 -72 -67l-48 90q37 21 43 74q2 22 2 57v590h96zM344 105q58 0 100 43q47 48 47 133q0 87 -47 140
q-42 47 -100 47q-49 0 -89 -39q-45 -43 -54 -113v-70q10 -70 53 -107q40 -34 90 -34z" />
    <glyph glyph-name="q" unicode="q" horiz-adv-x="643" 
d="M556 561v-590q0 -66 11 -93q9 -23 34 -38l-48 -90q-58 36 -77 79q-16 35 -16 108v143q-27 -37 -71.5 -58.5t-92.5 -21.5q-157 0 -209 154q-18 53 -18 127q0 152 78 227q61 58 149 58q46 0 91.5 -24t72.5 -62v81h96zM317 105q84 0 124 78q14 27 19 63v70q-14 107 -96 142
q-24 10 -47 10q-58 0 -100 -47q-47 -53 -47 -140q0 -85 47 -133q42 -43 100 -43z" />
    <glyph glyph-name="r" unicode="r" horiz-adv-x="545" 
d="M195 562v-107q0 1 1 2q38 26 76 51q45 31 80 46q29 12 55 12q27 0 62 -19t56 -53l-34 -99l-33 33q-20 17 -38 27q-15 7 -29 7q-36 0 -109 -50q-58 -40 -86 -68l6 -183q-1 -1 -1 -3q0 -78 -21 -115q-17 -31 -72 -66l-48 90q37 21 43 74q3 26 2 57l-6 364h96z" />
    <glyph glyph-name="s" unicode="s" horiz-adv-x="536" 
d="M486 166q0 -80 -68.5 -125.5t-186.5 -45.5q-135 0 -178 22v104h5q73 -34 200 -34t127 63v14q0 39 -40 53q-28 9 -78 19q-57 11 -79 17q-125 36 -138 150q21 117 131 155q40 13 96 13q102 0 184 -41v-100h-5q-66 49 -186 49q-80 0 -111 -39q-9 -12 -9 -25q0 -39 35 -56
q16 -7 70 -16q38 -7 93 -21q64 -23 100 -59q38 -39 38 -97z" />
    <glyph glyph-name="t" unicode="t" horiz-adv-x="498" 
d="M266 725v-165h175l17 -89h-192v-268q0 -72 22 -102q11 -17 40 -30l-50 -92q-42 13 -62 31q-24 20 -36 58q-10 29 -10 74v329h-109l-11 89h119v165h97z" />
    <glyph glyph-name="u" unicode="u" horiz-adv-x="651" 
d="M112 351q0 73 -21 102q-10 13 -21 19l-20 11l50 92q75 -24 98 -89q10 -28 10 -74l1 -209q6 -67 26 -91q23 -29 85 -29q65 0 140 53v254q0 81 21 119q18 33 72 68l48 -90q-37 -21 -42 -74q-3 -23 -3 -57v-365h-96v67q-83 -62 -165 -62q-93 0 -140 57q-43 53 -43 148v150z
" />
    <glyph glyph-name="v" unicode="v" horiz-adv-x="605" 
d="M409 439q41 89 107 130l59 -81q-41 -16 -82 -98l-203 -403l-260 551l104 23l88 -210q40 -97 68 -169z" />
    <glyph glyph-name="w" unicode="w" horiz-adv-x="802" 
d="M343 329q4 8 11 25q16 -22 44 -68l-24 -52q-32 -71 -62 -144q-18 -44 -39 -100l-213 550l104 18q48 -160 93 -292q14 -43 26 -76q15 35 41 97q8 18 19 42zM742 535l-213 -544q-35 96 -74 179q-19 39 -57 116q6 13 23 34t23 34q3 -6 58 -120q7 -15 16 -35q31 84 86 260
l30 97zM398 459q12 -21 36 -81q6 -15 10 -24q-6 -13 -23 -34t-23 -34q-16 22 -44 68l36 84q5 14 8 21z" />
    <glyph glyph-name="x" unicode="x" horiz-adv-x="605" 
d="M553 75q-18 -80 -32 -87q-4 -1 -6 -1q-30 0 -114 102q-10 12 -98 128q-86 -113 -99 -129q-84 -101 -115 -101q-9 0 -17 11q-16 24 -26 75q-1 -1 -1 -2t1 -1q14 0 90 97q52 67 84 112l-180 244l89 41l174 -222l170 222l92 -41q-24 -34 -86 -115l-53 -70q-27 -35 -45 -59
l120 -156q37 -48 49 -48h3z" />
    <glyph glyph-name="y" unicode="y" horiz-adv-x="614" 
d="M564 560q-13 -107 -46 -321q-38 -209 -103 -322q-84 -146 -226 -146h-24q-30 0 -51 6l-12 95q7 -1 14 -1h15q107 0 154 45q35 33 88 153q-41 -12 -80 -12q-89 0 -138 53t-51 141q-2 68 -3 94q-4 55 -12 92q-12 51 -39 61l47 93q17 -12 35 -23q15 -12 28 -33
q38 -62 38 -206v-35q0 -64 22 -105q27 -54 85 -54q64 0 90 32q29 117 49 297q5 45 13 96h107z" />
    <glyph glyph-name="z" unicode="z" horiz-adv-x="594" 
d="M520 45q-21 -32 -91 -42q-32 -4 -105 -4h-76q-51 1 -76 1h-142q51 71 105 144l186 250q37 50 55 77h-286v89h474q-100 -138 -208 -280l-85 -111q-37 -49 -55 -74h32h46q31 -1 47 -1h31q19 0 51 6q39 7 50 20z" />
    <glyph glyph-name="braceleft" unicode="{" horiz-adv-x="423" 
d="M231 215q-2 -11 -2 -20v-18q0 -145 46 -215q35 -52 138 -108l-94 -39q-112 52 -155 119q-52 82 -52 256v27q0 21 -39.5 59t-39.5 61q0 22 32 59q22 25 26 31q15 19 21 35v28q0 173 52 255q41 65 155 120l94 -39q-49 -29 -72 -45q-38 -28 -61 -58q-52 -67 -52 -192
q0 -11 3 -32t3 -32q0 -25 -47 -64t-47 -70q0 -20 45.5 -59t45.5 -59z" />
    <glyph glyph-name="bar" unicode="|" horiz-adv-x="266" 
d="M77 729h98v-762h-98v762z" />
    <glyph glyph-name="braceright" unicode="}" horiz-adv-x="429" 
d="M188 215q-1 19 45 58.5t46 59.5q0 31 -47 70t-47 64q0 10 2.5 30t2.5 30q0 126 -50 195q-34 47 -134 104l94 39q114 -55 155 -120q52 -82 52 -255v-28q8 -21 32 -49q31 -38 37 -46q10 -15 10 -30q0 -23 -39.5 -61t-39.5 -59v-27q0 -174 -52 -256q-43 -67 -155 -119
l-94 39q100 57 134 103q50 68 50 197q0 -3 -2 61z" />
    <glyph glyph-name="asciitilde" unicode="~" horiz-adv-x="428" 
d="M120 762q28 1 108 -21q77 -21 92 -21q19 0 40 29l46 -56q-36 -55 -86 -55q-22 0 -102 21l-55 14q-26 6 -39 6q-29 0 -58 -38l-45 59q46 61 99 62z" />
    <glyph glyph-name="exclamdown" unicode="&#xa1;" horiz-adv-x="305" 
d="M218 -33h-135v653h118zM214 750q0 -28 -18 -46.5t-46 -18.5t-46.5 18.5t-18.5 46.5t18.5 46t46.5 18q27 0 45.5 -18.5t18.5 -45.5z" />
    <glyph glyph-name="cent" unicode="&#xa2;" horiz-adv-x="400" 
d="M186 3q-73 14 -120.5 84t-47.5 163q0 142 101 216q31 22 67 30v103h62v-101q80 -15 122 -85l-45 -39q-33 42 -77 52v-356q44 14 78 55q1 -4 23.5 -16.5t30.5 -12.5h1q-28 -50 -94 -81q-20 -10 -39 -14v-97h-62v99zM88 250q0 -96 59 -152q18 -17 39 -25v350
q-98 -32 -98 -173zM382 98q0 -2 -1 -2q0 1 1 2z" />
    <glyph glyph-name="sterling" unicode="&#xa3;" horiz-adv-x="537" 
d="M94 580q0 89 58 138q52 44 139 44q45 0 90 -12l-16 -89q-33 12 -64 12q-45 0 -75 -24q-33 -26 -33 -69v-150h172v-74h-172q0 -20 1 -60v-60q0 -52 -4 -94q19 -19 41 -27q41 -16 116 -16h57q13 0 39 1h38h40l1 -100q-18 0 -53 1h-53q-15 0 -46 -1.5t-46 -1.5
q-91 0 -169 41q-21 -36 -67 -51q-12 -3 -19 -4l-44 92q14 5 43 31q26 33 26 129v120h-64v74h64v150z" />
    <glyph glyph-name="yen" unicode="&#xa5;" horiz-adv-x="500" 
d="M41 292h244q3 17 11 50q-33 -7 -60 -7q-100 0 -139 79q-18 34 -19 95q-2 85 -22 117q-11 16 -30 20l4 68q53 -6 74 -32q38 -48 40 -172q2 -105 87 -105q47 0 78 22q20 86 40 199q6 33 14 74h71q-8 -38 -15 -86l-14 -101q-20 -141 -38 -221h96v-58h-110l-8 -26
q-4 -13 -9 -26h127v-58h-150q-62 -132 -162 -132q-12 0 -24 2l7 67q55 2 92 63h-185v58h213q10 26 16 52h-229v58z" />
    <glyph glyph-name="section" unicode="&#xa7;" horiz-adv-x="470" 
d="M63 319q0 65 57 101q44 29 115 35q-6 2 -19 6q-52 14 -87 44q-42 36 -42 85q0 103 125 130q35 7 70 7q44 0 90 -7l-9 -75q-59 9 -98 9q-103 0 -103 -63q0 -49 85 -67q120 -25 158 -117q10 -26 10 -51q0 -52 -46 -86q-38 -27 -95 -36q47 -24 79 -60q38 -43 38 -89
q0 -50 -42 -83q-35 -27 -89 -37q-35 -6 -68 -6q-48 0 -114 10l8 68q60 -9 101 -9q67 0 98 20q25 16 25 40q0 36 -43 67q-33 24 -75 35q-52 14 -87 44q-42 36 -42 85zM334 359q0 24 -41 39q-25 8 -50 8q-75 0 -98 -55q-7 -16 -7 -31q0 -20 30 -32q26 -11 43 -11q65 0 98 31
q25 23 25 51z" />
    <glyph glyph-name="dieresis" unicode="&#xa8;" horiz-adv-x="412" 
d="M295 652q0 18 13 31t31 13q19 0 32 -12.5t13 -31.5t-13 -32t-32 -13t-31.5 13t-12.5 32zM35 651q0 19 13 31.5t32 12.5q18 0 31 -13t13 -31q0 -19 -12.5 -32t-31.5 -13t-32 13t-13 32z" />
    <glyph glyph-name="copyright" unicode="&#xa9;" horiz-adv-x="640" 
d="M24 403q0 125 87 213t210 88t212 -89.5t89 -211.5q0 -124 -89 -210.5t-212 -86.5q-126 0 -211.5 86.5t-85.5 210.5zM87 405q0 -92 70 -164t162 -72t163.5 73t71.5 163q0 91 -72.5 162t-162.5 71q-91 0 -161.5 -70.5t-70.5 -162.5zM403 339q2 -3 17.5 -22.5t19.5 -19.5
q1 0 1 1q-14 -27 -46 -48t-62 -21q-75 0 -118 51q-40 46 -40 120q0 85 47 133q42 43 111 43t102 -57l-33 -43q-33 42 -69 42q-48 0 -73 -36q-23 -32 -23 -82q0 -45 25 -76q27 -34 71 -34q33 0 70 49z" />
    <glyph glyph-name="ordfeminine" unicode="&#xaa;" horiz-adv-x="432" 
d="M215 328q-49 0 -81 31t-32 79q0 104 142 120q44 5 94 9v8q0 65 -92 65q-50 0 -110 -34h-3v60q31 17 82 24q16 2 31 2q75 0 110 -26q40 -30 41 -94v-113q1 -28 2 -38q3 -25 13 -35q5 -5 13 -10l-29 -57q-43 27 -53 60l-5 -4q-35 -27 -57 -36q-28 -11 -66 -11zM162 442
q0 -60 73 -60q48 0 101 39v98q-12 -1 -27 -2q-73 -6 -93 -12q-54 -17 -54 -63z" />
    <glyph glyph-name="guillemotleft" unicode="&#xab;" horiz-adv-x="803" 
d="M21 379l411 319v-111l-278 -208l278 -236v-112zM359 376l411 319v-111l-278 -208l278 -236v-112z" />
    <glyph glyph-name="registered" unicode="&#xae;" horiz-adv-x="649" 
d="M24 403q0 125 87 213t210 88t212 -89.5t89 -211.5q0 -124 -89 -210.5t-212 -86.5q-126 0 -211.5 86.5t-85.5 210.5zM87 405q0 -92 70 -164t162 -72t163.5 73t71.5 163q0 91 -72.5 162t-162.5 71q-91 0 -161.5 -70.5t-70.5 -162.5zM449 235q-2 -1 -10 -1q-36 0 -66 35
q-9 9 -13 19l-18 35q-24 46 -81 46q0 -102 -27 -125q-9 -7 -19 -11l-26 42q7 0 13 18q7 22 7 67v230h85q95 0 125 -41q13 -18 13 -48q0 -104 -91 -107q29 -3 45 -27q8 -13 20 -50q3 -8 15 -19q15 -14 27 -14q0 -16 1 -49zM382 494q0 50 -88 50h-19q-7 0 -14 -1v-116h7h11
q8 -1 12 -1h8q52 0 71 25q12 15 12 43z" />
    <glyph glyph-name="degree" unicode="&#xb0;" horiz-adv-x="313" 
d="M14 568q0 59 40 100t98 41t99.5 -41.5t41.5 -99.5t-41.5 -98t-99.5 -40t-98 40t-40 98zM64 567q0 -35 27 -62.5t61 -27.5q35 0 63.5 27.5t28.5 62.5q0 25 -16.5 49t-40.5 35q-17 7 -35 7q-34 0 -61 -28t-27 -63z" />
    <glyph glyph-name="plusminus" unicode="&#xb1;" horiz-adv-x="544" 
d="M492 467h-173v-173h-99v173h-174v99h174v174h99v-174h173v-99zM46 198h446v-99h-446v99z" />
    <glyph glyph-name="twosuperior" unicode="&#xb2;" horiz-adv-x="401" 
d="M76 689q17 40 55 64t81 24q69 0 110 -32q43 -36 43 -101q0 -64 -50 -121q-26 -29 -87 -67q-64 -39 -88 -64h214v-61h-253q-11 0 -25 13q-11 10 -11 21q0 43 157 152q69 48 77 95q3 13 3 27q0 42 -29 65q-27 20 -70 20q-65 0 -94 -63z" />
    <glyph glyph-name="threesuperior" unicode="&#xb3;" horiz-adv-x="313" 
d="M196 562q85 -40 85 -107q0 -79 -61 -103q-38 -16 -101 -19q-30 -1 -64 -1h-6q-3 0 -6 1l2 47q13 -1 26 -1q75 0 110 16q40 18 40 57q0 61 -74 79q-23 6 -52 6h-14l-1 4h-2l2 18v29h1v3q13 -2 26 -2q111 0 111 77q0 64 -86 74q-23 3 -46 3q-15 0 -36 -3l-2 46q36 2 57 2
q172 0 172 -123q0 -48 -51 -84q-15 -11 -30 -19z" />
    <glyph glyph-name="acute" unicode="&#xb4;" horiz-adv-x="256" 
d="M122 766h124l-140 -180h-96z" />
    <glyph glyph-name="paragraph" unicode="&#xb6;" horiz-adv-x="637" 
d="M515 -95q-1 -59 -26 -89q-18 -21 -53 -31l-37 68q9 3 24 17.5t20 46.5v772h-106l-3 -784q0 -60 -25 -89q-19 -21 -54 -31l-37 68q33 14 42 49q4 18 4 48v361q-72 1 -126 35q-58 35 -83 99q-17 41 -17 91q0 110 71 166q64 51 177 51h230z" />
    <glyph glyph-name="cedilla" unicode="&#xb8;" horiz-adv-x="417" 
d="M295 2q-7 -58 -35 -82q-10 -8 -22 -8q-10 0 -24 6t-20 6q-18 0 -18 -24q0 -36 35 -36q19 0 36 5l12 -53q-26 -6 -45 -6q-56 0 -79 39q-13 23 -13 51q0 30 21.5 53.5t50.5 23.5q21 0 41 -11q2 17 6 40z" />
    <glyph glyph-name="onesuperior" unicode="&#xb9;" horiz-adv-x="266" 
d="M69 671q23 13 48 52q19 29 32 57h50v-449h-51v360q-27 -38 -60 -57z" />
    <glyph glyph-name="ordmasculine" unicode="&#xba;" horiz-adv-x="360" 
d="M32 499q0 84 44 133q41 45 110 45q76 -1 116 -48.5t40 -129.5q0 -78 -40.5 -124t-115.5 -46q-102 0 -140 93q-14 32 -14 77zM91 499q0 -78 60 -106q17 -7 35 -7q44 0 72 34.5t28 78.5q0 88 -61 116q-19 9 -42 9q-64 -1 -86 -74q-6 -23 -6 -51z" />
    <glyph glyph-name="guillemotright" unicode="&#xbb;" horiz-adv-x="833" 
d="M388 31v112l278 236l-278 208v111l411 -319zM50 28v112l278 236l-278 208v111l411 -319z" />
    <glyph glyph-name="onequarter" unicode="&#xbc;" horiz-adv-x="719" 
d="M53 672q29 13 62 55q23 30 40 60h63v-476h-65v382q-34 -40 -76 -61zM487 742h74l-422 -739h-74zM733 194h-34v-192h-63v194h-274l141 307l61 -17l-31 -71q-19 -42 -55 -126l-20 -43h178v285h63v-285h34v-52z" />
    <glyph glyph-name="onehalf" unicode="&#xbd;" horiz-adv-x="781" 
d="M63 691q25 15 54 59q21 32 36 63h56v-504h-57v405q-31 -43 -68 -64zM487 737h74l-422 -739h-74zM428 385q18 42 57 67t84 25q72 0 113 -34q45 -37 45 -105q0 -66 -52 -125q-26 -30 -91 -70t-90 -66h222v-63h-261q-12 0 -27 13q-11 11 -11 22q0 45 162 158q72 50 80 98
q3 14 3 29q0 43 -29 65.5t-73 22.5q-68 0 -97 -66z" />
    <glyph glyph-name="threequarters" unicode="&#xbe;" horiz-adv-x="868" 
d="M238 540q94 -45 94 -120q0 -88 -67 -115q-43 -17 -114 -21q-34 -1 -71 -1h-7q-4 0 -7 1l2 53q15 -2 30 -2q83 0 123 18q44 20 44 64q0 68 -83 88q-26 7 -58 7h-16v4h-2l1 21v32h1v3q15 -2 30 -2q50 0 83 18q42 22 42 67q0 73 -97 84q-27 3 -52 3q-16 0 -40 -4l-2 52
q40 2 63 2q193 0 193 -137q0 -54 -57 -94q-17 -12 -33 -21zM596 741h74l-422 -739h-74zM859 193h-34v-191h-63v193h-272l140 305l60 -17l-31 -70q-18 -42 -54 -125l-20 -44h177v284h63v-283h34v-52z" />
    <glyph glyph-name="questiondown" unicode="&#xbf;" horiz-adv-x="522" 
d="M481 -114q-83 -79 -199 -79q-96 0 -165.5 66t-69.5 161q0 139 171 222q104 51 104 213q0 13 -1 30l77 1q0 -7 1 -20t1 -20q0 -202 -148 -275q-85 -42 -114 -104q-11 -23 -11 -50q0 -70 50 -110q43 -34 102 -34q84 0 147 55zM412 611q0 -21 -15.5 -36.5t-36.5 -15.5
t-36.5 15.5t-15.5 36.5t15.5 36.5t36.5 15.5t36.5 -15.5t15.5 -36.5z" />
    <glyph glyph-name="Agrave" unicode="&#xc0;" horiz-adv-x="670" 
d="M635 116q26 -51 51 -56q7 -2 13 -2h10l-50 -92q-26 6 -55 21q-32 17 -44 50l-80 213h-258l-84 -249h-112l263 723h128zM450 337l-99 304l-100 -304h199zM391 775h-86l-143 177h117z" />
    <glyph glyph-name="Aacute" unicode="&#xc1;" horiz-adv-x="668" 
d="M635 116q26 -51 51 -56q7 -2 13 -2h10l-50 -92q-26 6 -55 21q-32 17 -44 50l-80 213h-258l-84 -249h-112l263 723h128zM450 337l-99 304l-100 -304h199zM418 981h124l-140 -180h-96z" />
    <glyph glyph-name="Acircumflex" unicode="&#xc2;" horiz-adv-x="673" 
d="M635 116q26 -51 51 -56q7 -2 13 -2h10l-50 -92q-26 6 -55 21q-32 17 -44 50l-80 213h-258l-84 -249h-112l263 723h128zM450 337l-99 304l-100 -304h199zM528 747q-66 0 -121 27q-41 20 -60 44q-26 -26 -70 -47q-54 -25 -111 -25v77q49 0 107 37q54 35 54 50v-1l24 37
l20 -40q6 -28 56.5 -55t100.5 -27v-77z" />
    <glyph glyph-name="Atilde" unicode="&#xc3;" horiz-adv-x="670" 
d="M295 849q30 1 74 -20.5t61 -21.5q19 0 40 29l46 -29q-36 -55 -86 -55q-26 0 -69 20.5t-62 20.5q-29 0 -58 -38l-45 32q46 61 99 62zM634 116q26 -51 51 -56q7 -2 13 -2h10l-50 -92q-26 6 -55 21q-32 17 -44 50l-80 213h-258l-84 -249h-112l263 723h128zM449 337l-99 304
l-100 -304h199z" />
    <glyph glyph-name="Adieresis" unicode="&#xc4;" horiz-adv-x="680" 
d="M635 116q26 -51 51 -56q7 -2 13 -2h10l-50 -92q-26 6 -55 21q-32 17 -44 50l-80 213h-258l-84 -249h-112l263 723h128zM450 337l-99 304l-100 -304h199zM433 852q0 18 13 31t31 13q19 0 32 -12.5t13 -31.5t-13 -32t-32 -13t-31.5 13t-12.5 32zM173 851q0 19 13 31.5
t32 12.5q18 0 31 -13t13 -31q0 -19 -12.5 -32t-31.5 -13t-32 13t-13 32z" />
    <glyph glyph-name="Aring" unicode="&#xc5;" horiz-adv-x="673" 
d="M258 856q0 38 25.5 64t63.5 26q37 0 63.5 -26.5t26.5 -63.5q0 -38 -26 -63.5t-64 -25.5t-63.5 25.5t-25.5 63.5zM290 855q0 -23 17 -40.5t40 -17.5t40.5 17.5t17.5 40.5t-17.5 40.5t-40.5 17.5t-40 -17.5t-17 -40.5zM635 116q26 -51 51 -56q7 -2 13 -2h10l-50 -92
q-26 6 -55 21q-32 17 -44 50l-80 213h-258l-84 -249h-112l263 723h128zM450 337l-99 304l-100 -304h199z" />
    <glyph glyph-name="AE" unicode="&#xc6;" horiz-adv-x="822" 
d="M453 618q1 -24 1 -43v-35v-59q-1 -38 -1 -58h239v-108h-239q3 -65 3 -97q0 -48 -8 -72q-4 -10 -8 -22l40 -18q15 -5 45 -5h233v-100q-51 0 -154 -2h-52h-36q-57 0 -118 26q-9 -9 -17 -19q-11 -11 -21 -13l-66 81q10 7 25 21q23 26 28 99h-135q-45 -118 -80 -193l-128 -2
l345 719h305q39 0 66 12q2 1 7.5 5.5t9.5 4.5l49 -84q-38 -32 -66 -35q-8 -1 -18 -3h-249zM349 285v246l-112 -246h112z" />
    <glyph glyph-name="Ccedilla" unicode="&#xc7;" horiz-adv-x="523" 
d="M421 178q1 2 1.5 2.5t1.5 2.5l57 -71l-1 -1q-27 -45 -74 -74.5t-99 -34.5q-7 -58 -35 -82q-10 -8 -22 -8q-10 0 -24 6t-20 6q-18 0 -18 -24q0 -36 35 -36q19 0 36 5l12 -53q-26 -6 -45 -6q-56 0 -79 39q-13 23 -13 51q0 30 21.5 53.5t50.5 23.5q21 0 41 -11q2 17 6 40
q-103 4 -161 109q-54 97 -54 237q0 148 73.5 249.5t182.5 99.5q110 -2 176 -124l-58 -75q-47 97 -118 97q-68 0 -112 -67q-48 -72 -48 -180q0 -111 48 -182q45 -67 112 -67q35 0 72 23q34 21 55 52z" />
    <glyph glyph-name="Egrave" unicode="&#xc8;" horiz-adv-x="563" 
d="M398 717q37 0 65 12q2 0 7 4.5t9 4.5l47 -81q-40 -33 -63 -34q-8 -1 -18 -3h-241q1 -23 1 -41v-33v-55q-1 -37 -1 -55h231v-104h-231q0 -28 -1 -84t-1 -84q0 -32 -3 -54q29 -13 75 -13h225v-96q-50 0 -149 -2h-50h-38q-53 0 -99 20q-20 -20 -54 -42l-48 90q37 21 43 74
q2 22 2 57v519h292zM264 1000h-149l168 -204h115z" />
    <glyph glyph-name="Eacute" unicode="&#xc9;" horiz-adv-x="571" 
d="M398 717q37 0 65 12q2 0 7 4.5t9 4.5l47 -81q-40 -33 -63 -34q-8 -1 -18 -3h-241q1 -23 1 -41v-33v-55q-1 -37 -1 -55h231v-104h-231q0 -28 -1 -84t-1 -84q0 -32 -3 -54q29 -13 75 -13h225v-96q-50 0 -149 -2h-50h-38q-53 0 -99 20q-20 -20 -54 -42l-48 90q37 21 43 74
q2 22 2 57v519h292zM301 1000h149l-168 -204h-115z" />
    <glyph glyph-name="Ecircumflex" unicode="&#xca;" horiz-adv-x="568" 
d="M398 717q37 0 65 12q2 0 7 4.5t9 4.5l47 -81q-40 -33 -63 -34q-8 -1 -18 -3h-241q1 -23 1 -41v-33v-55q-1 -37 -1 -55h231v-104h-231q0 -28 -1 -84t-1 -84q0 -32 -3 -54q29 -13 75 -13h225v-96q-50 0 -149 -2h-50h-38q-53 0 -99 20q-20 -20 -54 -42l-48 90q37 21 43 74
q2 22 2 57v519h292zM485 768q-73 0 -133 28q-44 20 -65 45q-29 -27 -77 -48q-58 -26 -120 -26v79q53 0 116 39q59 36 59 51v-1l27 39l21 -42q7 -29 62 -57t110 -28v-79z" />
    <glyph glyph-name="Edieresis" unicode="&#xcb;" horiz-adv-x="556" 
d="M398 717q37 0 65 12q2 0 7 4.5t9 4.5l47 -81q-40 -33 -63 -34q-8 -1 -18 -3h-241q1 -23 1 -41v-33v-55q-1 -37 -1 -55h231v-104h-231q0 -28 -1 -84t-1 -84q0 -32 -3 -54q29 -13 75 -13h225v-96q-50 0 -149 -2h-50h-38q-53 0 -99 20q-20 -20 -54 -42l-48 90q37 21 43 74
q2 22 2 57v519h292zM390 852q0 18 13 31t31 13q19 0 32 -12.5t13 -31.5t-13 -32t-32 -13t-31.5 13t-12.5 32zM130 851q0 19 13 31.5t32 12.5q18 0 31 -13t13 -31q0 -19 -12.5 -32t-31.5 -13t-32 13t-13 32z" />
    <glyph glyph-name="Igrave" unicode="&#xcc;" horiz-adv-x="295" 
d="M196 725q-2 -103 -2 -182l1 -550h-96v732h97zM196 770h-86l-143 177h117z" />
    <glyph glyph-name="Iacute" unicode="&#xcd;" horiz-adv-x="350" 
d="M184 725q-2 -103 -2 -182l1 -550h-96v732h97zM216 992h124l-140 -180h-96z" />
    <glyph glyph-name="Icircumflex" unicode="&#xce;" horiz-adv-x="382" 
d="M241 725q-2 -103 -2 -182l1 -550h-96v732h97zM372 827q-66 0 -121 27q-41 20 -60 44q-26 -26 -70 -47q-54 -25 -111 -25v77q49 0 107 37q54 35 54 50v-1l24 37l20 -40q6 -28 56.5 -55t100.5 -27v-77z" />
    <glyph glyph-name="Idieresis" unicode="&#xcf;" horiz-adv-x="342" 
d="M218 725q-2 -103 -2 -182l1 -550h-96v732h97zM256 829q0 18 13 31t31 13q19 0 32 -12.5t13 -31.5t-13 -32t-32 -13t-31.5 13t-12.5 32zM-4 828q0 19 13 31.5t32 12.5q18 0 31 -13t13 -31q0 -19 -12.5 -32t-31.5 -13t-32 13t-13 32z" />
    <glyph glyph-name="Eth" unicode="&#xd0;" horiz-adv-x="644" 
d="M30 463h81v227h173q166 0 250 -107q72 -94 72 -252q0 -170 -79 -255q-76 -80 -212 -80q-70 0 -141 34q-16 -27 -40 -33l-71 67q48 22 48 98v227h-81v74zM327 93q85 5 137 80q44 64 44 158q0 140 -73 204q-68 59 -208 59h-9q-5 0 -10 -1v-130h154v-74h-154v-182
q0 -12 -1 -34q-1 -15 -10 -56q63 -28 130 -24z" />
    <glyph glyph-name="Ntilde" unicode="&#xd1;" horiz-adv-x="724" 
d="M618 -1h-119l-266 611v-468q0 -81 -34 -121q-23 -26 -74 -42l-50 92q29 13 41 30q21 30 21 102v521h156l229 -531l1 357v15q-1 9 -1 14v5q0 80 35 120q24 28 73 43l50 -92q-21 -12 -23 -13q-10 -6 -17 -17q-22 -29 -22 -102v-524zM341 868q26 0 59 -14l54 -28
q15 -7 29 -7q18 0 39 34l51 -34q-41 -61 -90 -61q-28 0 -74 23t-65 23q-29 0 -59 -43l-48 36q49 69 104 71z" />
    <glyph glyph-name="Ograve" unicode="&#xd2;" horiz-adv-x="649" 
d="M52 362q-1 144 63 252q76 127 213 127q150 0 226 -112q66 -100 66 -263q0 -161 -75 -261q-80 -107 -211 -107q-97 0 -168 66q-63 59 -93 157q-20 68 -21 141zM151 359q0 -71 41 -149q52 -102 142 -102q73 0 123 63q56 70 56 188q0 93 -40 175q-50 103 -139 103
q-76 0 -122 -61q-51 -67 -60 -179q-2 -26 -2 -38v-10q1 1 1 10zM386 782h-95l-159 152h130z" />
    <glyph glyph-name="Oacute" unicode="&#xd3;" horiz-adv-x="642" 
d="M52 362q-1 144 63 252q76 127 213 127q150 0 226 -112q66 -100 66 -263q0 -161 -75 -261q-80 -107 -211 -107q-97 0 -168 66q-63 59 -93 157q-20 68 -21 141zM151 359q0 -71 41 -149q52 -102 142 -102q73 0 123 63q56 70 56 188q0 93 -40 175q-50 103 -139 103
q-76 0 -122 -61q-51 -67 -60 -179q-2 -26 -2 -38v-10q1 1 1 10zM356 966h124l-140 -180h-96z" />
    <glyph glyph-name="Ocircumflex" unicode="&#xd4;" horiz-adv-x="636" 
d="M52 362q-1 144 63 252q76 127 213 127q150 0 226 -112q66 -100 66 -263q0 -161 -75 -261q-80 -107 -211 -107q-97 0 -168 66q-63 59 -93 157q-20 68 -21 141zM151 359q0 -71 41 -149q52 -102 142 -102q73 0 123 63q56 70 56 188q0 93 -40 175q-50 103 -139 103
q-76 0 -122 -61q-51 -67 -60 -179q-2 -26 -2 -38v-10q1 1 1 10zM513 746q-66 0 -121 27q-41 20 -60 44q-26 -26 -70 -47q-54 -25 -111 -25v77q49 0 107 37q54 35 54 50v-1l24 37l20 -40q6 -28 56.5 -55t100.5 -27v-77z" />
    <glyph glyph-name="Otilde" unicode="&#xd5;" horiz-adv-x="633" 
d="M258 884q41 -12 125 -34q19 -5 34 -5q20 0 41 27l53 -67q-41 -48 -94 -48q-26 0 -83 19l-38 12q-19 6 -34 6q-33 0 -63 -34l-50 68q50 54 109 56zM49 362q-1 144 63 252q76 127 213 127q150 0 226 -112q66 -100 66 -263q0 -161 -75 -261q-80 -107 -211 -107
q-97 0 -168 66q-63 59 -93 157q-20 68 -21 141zM148 359q0 -71 41 -149q52 -102 142 -102q73 0 123 63q56 70 56 188q0 93 -40 175q-50 103 -139 103q-76 0 -122 -61q-51 -67 -60 -179q-2 -26 -2 -38v-10q1 1 1 10z" />
    <glyph glyph-name="Odieresis" unicode="&#xd6;" horiz-adv-x="627" 
d="M52 362q-1 144 63 252q76 127 213 127q150 0 226 -112q66 -100 66 -263q0 -161 -75 -261q-80 -107 -211 -107q-97 0 -168 66q-63 59 -93 157q-20 68 -21 141zM151 359q0 -71 41 -149q52 -102 142 -102q73 0 123 63q56 70 56 188q0 93 -40 175q-50 103 -139 103
q-76 0 -122 -61q-51 -67 -60 -179q-2 -26 -2 -38v-10q1 1 1 10zM399 852q0 18 13 31t31 13q19 0 32 -12.5t13 -31.5t-13 -32t-32 -13t-31.5 13t-12.5 32zM139 851q0 19 13 31.5t32 12.5q18 0 31 -13t13 -31q0 -19 -12.5 -32t-31.5 -13t-32 13t-13 32z" />
    <glyph glyph-name="multiply" unicode="&#xd7;" horiz-adv-x="623" 
d="M569 156l-52 -52l-205 204l52 52zM116 609l196 -197l-52 -52l-196 197zM518 619l52 -62l-454 -444l-51 53z" />
    <glyph glyph-name="Oslash" unicode="&#xd8;" horiz-adv-x="633" 
d="M52 348q-1 136 61 236q73 117 204 117q85 0 144 -36l24 38l59 -7l-40 -64q93 -91 93 -281q0 -153 -72 -250q-76 -103 -202 -103q-101 0 -171 72l-48 -77l-59 7l71 114q-63 101 -64 234zM486 345q0 110 -46 184l-228 -364q45 -61 111 -61q69 0 114 60q49 66 49 181z
M323 600q-73 0 -116 -64t-48 -171q-1 -21 -1 -25q0 -60 25 -119l220 351q-37 28 -80 28z" />
    <glyph glyph-name="Ugrave" unicode="&#xd9;" horiz-adv-x="794" 
d="M745 640q-21 -12 -23 -13q-10 -6 -17 -17q-22 -29 -22 -102v-207q0 -300 -273 -300q-145 0 -212 79q-63 73 -63 221v207q0 73 -21 102q-10 13 -21 19l-20 11l50 92q70 -21 98 -99q10 -32 10 -64l-2 -271q-1 -200 181 -200q177 0 177 197v274q0 99 69 145q19 12 39 18z
M475 721h-86l-143 177h117z" />
    <glyph glyph-name="Uacute" unicode="&#xda;" horiz-adv-x="785" 
d="M457 854h116l-138 -170h-89zM744 640q-21 -12 -23 -13q-10 -6 -17 -17q-22 -29 -22 -102v-207q0 -300 -273 -300q-145 0 -212 79q-63 73 -63 221v207q0 73 -21 102q-10 13 -21 19l-20 11l50 92q70 -21 98 -99q10 -32 10 -64l-2 -271q-1 -200 181 -200q177 0 177 197v274
q0 99 69 145q19 12 39 18z" />
    <glyph glyph-name="Ucircumflex" unicode="&#xdb;" horiz-adv-x="755" 
d="M715 640q-21 -12 -23 -13q-10 -6 -17 -17q-22 -29 -22 -102v-207q0 -300 -273 -300q-145 0 -212 79q-63 73 -63 221v207q0 73 -21 102q-10 13 -21 19l-20 11l50 92q70 -21 98 -99q10 -32 10 -64l-2 -271q-1 -200 181 -200q177 0 177 197v274q0 99 69 145q19 12 39 18z
M567 760q-66 0 -121 27q-41 20 -60 44q-26 -26 -70 -47q-54 -25 -111 -25v77q49 0 107 37q54 35 54 50v-1l24 37l20 -40q6 -28 56.5 -55t100.5 -27v-77z" />
    <glyph glyph-name="Udieresis" unicode="&#xdc;" horiz-adv-x="724" 
d="M690 640q-21 -12 -23 -13q-10 -6 -17 -17q-22 -29 -22 -102v-207q0 -300 -273 -300q-145 0 -212 79q-63 73 -63 221v207q0 73 -21 102q-10 13 -21 19l-20 11l50 92q70 -21 98 -99q10 -32 10 -64l-2 -271q-1 -200 181 -200q177 0 177 197v274q0 99 69 145q19 12 39 18z
M456 834q0 19 13.5 33t32.5 14q20 0 34 -13.5t14 -33.5t-13.5 -33.5t-34.5 -13.5q-19 0 -32.5 14t-13.5 33zM182 833q0 20 14 33.5t33 13.5t33 -14t14 -33q0 -20 -13.5 -33.5t-33.5 -13.5t-33.5 13.5t-13.5 33.5z" />
    <glyph glyph-name="Yacute" unicode="&#xdd;" horiz-adv-x="506" 
d="M300 859h99l-139 -139h-72zM504 726q-15 -115 -50 -343q-33 -188 -87 -280q-67 -116 -180 -116h-4q-3 1 -4 1l4 100q67 3 110 89q22 46 33 87q5 19 8 29q-30 -7 -50 -7q-60 0 -112 34q-73 47 -75 149q-1 78 -23 125q-15 31 -32 34l26 101q45 -5 78 -58q42 -67 46 -191
q1 -41 26.5 -67t65.5 -26q38 0 73 23l46 316h101z" />
    <glyph glyph-name="agrave" unicode="&#xe0;" horiz-adv-x="607" 
d="M365 624h-66l-140 143h94zM235 -10q-76 0 -126.5 49.5t-50.5 124.5q0 118 106 162q70 29 266 41v13q0 59 -41 84q-34 19 -105 19q-78 0 -172 -53h-6v94q50 27 129 38q26 3 50 3q117 0 174 -41q62 -47 63 -148l1 -178q0 -33 1 -47q2 -29 8 -46q8 -23 34 -38l-46 -90
q-67 43 -83 94l-7 -7q-60 -45 -99.5 -59.5t-95.5 -14.5zM259 275q-106 -23 -106 -105q0 -94 114 -94q77 0 160 62v154q-20 -1 -44 -3q-42 -3 -124 -14z" />
    <glyph glyph-name="aacute" unicode="&#xe1;" horiz-adv-x="576" 
d="M299 803h124l-140 -180h-96zM218 -10q-76 0 -126.5 49.5t-50.5 124.5q0 118 106 162q70 29 266 41v13q0 59 -41 84q-34 19 -105 19q-78 0 -172 -53h-6v94q50 27 129 38q26 3 50 3q117 0 174 -41q62 -47 63 -148l1 -178q0 -33 1 -47q2 -29 8 -46q8 -23 34 -38l-46 -90
q-67 43 -83 94l-7 -7q-60 -45 -99.5 -59.5t-95.5 -14.5zM242 275q-106 -23 -106 -105q0 -94 114 -94q77 0 160 62v154q-20 -1 -44 -3q-42 -3 -124 -14z" />
    <glyph glyph-name="acircumflex" unicode="&#xe2;" horiz-adv-x="596" 
d="M477 633q-66 0 -121 27q-41 20 -60 44q-26 -26 -70 -47q-54 -25 -111 -25v77q49 0 107 37q54 35 54 50v-1l24 37l20 -40q6 -28 56.5 -55t100.5 -27v-77zM231 -7q-76 0 -126.5 49.5t-50.5 124.5q0 118 106 162q70 29 266 41v13q0 59 -41 84q-34 19 -105 19q-78 0 -172 -53
h-6v94q50 27 129 38q26 3 50 3q117 0 174 -41q62 -47 63 -148l1 -178q0 -33 1 -47q2 -29 8 -46q8 -23 34 -38l-46 -90q-67 43 -83 94l-7 -7q-60 -45 -99.5 -59.5t-95.5 -14.5zM255 278q-106 -23 -106 -105q0 -94 114 -94q77 0 160 62v154q-20 -1 -44 -3q-42 -3 -124 -14z
" />
    <glyph glyph-name="atilde" unicode="&#xe3;" horiz-adv-x="595" 
d="M224 761q33 0 115 -39q15 -8 29 -8q11 0 30 19q16 16 24 29l49 -56q-48 -69 -103 -69q-29 0 -75.5 22t-65.5 22t-41 -9q-32 -13 -45 -32l-49 54q22 28 59.5 47.5t72.5 19.5zM230 -6q-76 0 -126.5 49.5t-50.5 124.5q0 118 106 162q70 29 266 41v13q0 59 -41 84
q-34 19 -105 19q-78 0 -172 -53h-6v94q50 27 129 38q26 3 50 3q117 0 174 -41q62 -47 63 -148l1 -178q0 -33 1 -47q2 -29 8 -46q8 -23 34 -38l-46 -90q-67 43 -83 94l-7 -7q-60 -45 -99.5 -59.5t-95.5 -14.5zM254 279q-106 -23 -106 -105q0 -94 114 -94q77 0 160 62v154
q-20 -1 -44 -3q-42 -3 -124 -14z" />
    <glyph glyph-name="adieresis" unicode="&#xe4;" horiz-adv-x="571" 
d="M224 -10q-76 0 -126.5 49.5t-50.5 124.5q0 118 106 162q70 29 266 41v13q0 59 -41 84q-34 19 -105 19q-78 0 -172 -53h-6v94q50 27 129 38q26 3 50 3q117 0 174 -41q62 -47 63 -148l1 -178q0 -33 1 -47q2 -29 8 -46q8 -23 34 -38l-46 -90q-67 43 -83 94l-7 -7
q-60 -45 -99.5 -59.5t-95.5 -14.5zM248 275q-106 -23 -106 -105q0 -94 114 -94q77 0 160 62v154q-20 -1 -44 -3q-42 -3 -124 -14zM351 693q0 18 13 31t31 13q19 0 32 -12.5t13 -31.5t-13 -32t-32 -13t-31.5 13t-12.5 32zM91 692q0 19 13 31.5t32 12.5q18 0 31 -13t13 -31
q0 -19 -12.5 -32t-31.5 -13t-32 13t-13 32z" />
    <glyph glyph-name="aring" unicode="&#xe5;" horiz-adv-x="595" 
d="M179 718q0 44 30.5 75.5t74.5 31.5t75.5 -31.5t31.5 -75.5t-31.5 -74.5t-75.5 -30.5q-45 0 -75 30t-30 75zM217 717q0 -27 20 -48t47 -21t48 21t21 48t-21 48t-48 21q-26 0 -46.5 -21t-20.5 -48zM235 -5q-76 0 -126.5 49.5t-50.5 124.5q0 118 106 162q70 29 266 41v13
q0 59 -41 84q-34 19 -105 19q-78 0 -172 -53h-6v94q50 27 129 38q26 3 50 3q117 0 174 -41q62 -47 63 -148l1 -178q0 -33 1 -47q2 -29 8 -46q8 -23 34 -38l-46 -90q-67 43 -83 94l-7 -7q-60 -45 -99.5 -59.5t-95.5 -14.5zM259 280q-106 -23 -106 -105q0 -94 114 -94
q77 0 160 62v154q-20 -1 -44 -3q-42 -3 -124 -14z" />
    <glyph glyph-name="ae" unicode="&#xe6;" horiz-adv-x="1001" 
d="M875 59q-71 -64 -183 -64q-87 0 -159 52l-49 -51q-47 16 -54 52q-27 -18 -90.5 -36.5t-103.5 -18.5q-121 0 -174 88q-20 32 -20 78q-1 109 73 164q55 41 141 41q109 0 151 -64q0 120 -73 165q-30 18 -78 18q-71 0 -120 -38q-12 -10 -18 -16l-40 86q69 57 172 57
q165 0 222 -117q74 114 211 114q123 0 194 -83q65 -78 65 -199v-22q0 -12 -1 -22h-415q0 -73 54 -112q49 -35 125 -35q82 0 143 59zM265 88q73 9 105 47q16 18 16 48q0 45 -40 76q-36 27 -83 27q-49 0 -83 -29.5t-34 -76.5q0 -69 86 -87q19 -4 29 -5h4zM676 471
q-81 0 -126 -67q-17 -25 -24 -61h323q-15 70 -63 102q-40 26 -103 26h-7z" />
    <glyph glyph-name="ccedilla" unicode="&#xe7;" horiz-adv-x="503" 
d="M396 141q-1 0 2 -4v1q60 -62 60 -66q-52 -70 -142 -76q-2 -23 -3 -46q-3 -28 -11 -43q-7 -10 -20 -10q-10 0 -29.5 7t-31.5 7q-29 0 -29 -35q0 -41 59 -41q16 0 28 4l-4 -62q-23 -5 -48 -5q-53 0 -84 46q-21 32 -21 60q0 31 18.5 59.5t48.5 28.5q36 0 58 -10q0 20 6 44
q-102 10 -162 94q-55 76 -55 181q0 132 83 213q75 73 172 73q105 0 175 -105l-61 -56q-39 69 -114 69q-68 0 -114 -52q-50 -55 -50 -142q0 -62 35 -118q45 -73 129 -73q64 0 105 57z" />
    <glyph glyph-name="egrave" unicode="&#xe8;" horiz-adv-x="600" 
d="M564 265h-410q0 -181 193 -181q80 0 143 35q18 10 30 21h5v-97q-101 -45 -177 -45q-136 0 -212 72.5t-76 207.5q0 134 72.5 212.5t192.5 78.5q239 0 239 -246v-58zM475 343q0 150 -155 150q-109 0 -150 -90q-13 -28 -16 -60h321zM345 615h-86l-143 177h117z" />
    <glyph glyph-name="eacute" unicode="&#xe9;" horiz-adv-x="589" 
d="M338 793h100l-143 -154h-72zM558 265h-410q0 -181 193 -181q80 0 143 35q18 10 30 21h5v-97q-101 -45 -177 -45q-136 0 -212 72.5t-76 207.5q0 134 72.5 212.5t192.5 78.5q239 0 239 -246v-58zM469 343q0 150 -155 150q-109 0 -150 -90q-13 -28 -16 -60h321z" />
    <glyph glyph-name="ecircumflex" unicode="&#xea;" horiz-adv-x="599" 
d="M564 265h-410q0 -181 193 -181q80 0 143 35q18 10 30 21h5v-97q-101 -45 -177 -45q-136 0 -212 72.5t-76 207.5q0 134 72.5 212.5t192.5 78.5q239 0 239 -246v-58zM475 343q0 150 -155 150q-109 0 -150 -90q-13 -28 -16 -60h321zM494 643q-69 0 -126 30q-42 22 -62 49
q-27 -29 -73 -52q-55 -28 -115 -28v85q51 0 111 41q57 39 57 55v-1l24 41l21 -44q6 -31 58.5 -61t104.5 -30v-85z" />
    <glyph glyph-name="edieresis" unicode="&#xeb;" horiz-adv-x="590" 
d="M564 265h-410q0 -181 193 -181q80 0 143 35q18 10 30 21h5v-97q-101 -45 -177 -45q-136 0 -212 72.5t-76 207.5q0 134 72.5 212.5t192.5 78.5q239 0 239 -246v-58zM475 343q0 150 -155 150q-109 0 -150 -90q-13 -28 -16 -60h321zM377 691q0 18 13 31t31 13q19 0 32 -12.5
t13 -31.5t-13 -32t-32 -13t-31.5 13t-12.5 32zM117 690q0 19 13 31.5t32 12.5q18 0 31 -13t13 -31q0 -19 -12.5 -32t-31.5 -13t-32 13t-13 32z" />
    <glyph glyph-name="igrave" unicode="&#xec;" horiz-adv-x="311" 
d="M221 175q0 -80 5 -98q5 -24 32 -34l-73 -61q-48 17 -58 50q-8 27 -8 143v370h102v-370zM239 615h-86l-143 177h117z" />
    <glyph glyph-name="iacute" unicode="&#xed;" horiz-adv-x="304" 
d="M176 175q0 -80 5 -98q5 -24 32 -34l-73 -61q-48 17 -58 50q-8 27 -8 143v370h102v-370zM176 839h124l-140 -180h-96z" />
    <glyph glyph-name="icircumflex" unicode="&#xee;" horiz-adv-x="382" 
d="M225 175q0 -80 5 -98q5 -24 32 -34l-73 -61q-48 17 -58 50q-8 27 -8 143v370h102v-370zM372 614q-66 0 -121 27q-41 20 -60 44q-26 -26 -70 -47q-54 -25 -111 -25v77q49 0 107 37q54 35 54 50v-1l24 37l20 -40q6 -28 56.5 -55t100.5 -27v-77z" />
    <glyph glyph-name="idieresis" unicode="&#xef;" horiz-adv-x="369" 
d="M229 175q0 -80 5 -98q5 -24 32 -34l-73 -61q-48 17 -58 50q-8 27 -8 143v370h102v-370zM270 690q0 18 13 31t31 13q19 0 32 -12.5t13 -31.5t-13 -32t-32 -13t-31.5 13t-12.5 32zM10 689q0 19 13 31.5t32 12.5q18 0 31 -13t13 -31q0 -19 -12.5 -32t-31.5 -13t-32 13
t-13 32z" />
    <glyph glyph-name="ntilde" unicode="&#xf1;" horiz-adv-x="566" 
d="M198 763q29 1 82 -23l34 -16q16 -8 30 -8q20 0 42 33l52 -33q-44 -60 -94 -60q-31 0 -77 23t-66 23q-30 0 -62 -43l-50 35q49 68 109 69zM502 203q0 -72 22 -102q11 -17 40 -30l-50 -92q-42 13 -64 32t-34 57q-10 28 -10 74l-1 209q-6 65 -28 92.5t-83 27.5
q-65 0 -140 -53v-254q0 -80 -21 -119q-18 -33 -72 -68l-48 90q37 21 43 74q2 22 2 57v365h96v-67q83 62 165 62q93 0 140 -57q43 -53 43 -148v-150z" />
    <glyph glyph-name="ograve" unicode="&#xf2;" horiz-adv-x="622" 
d="M64 274q0 138 73 218q67 75 180 74q126 -1 194 -82q63 -76 63 -210q0 -127 -63 -200q-68 -80 -194 -80q-80 0 -140.5 40t-90.5 113q-22 53 -22 127zM160 274q0 -83 50 -138q45 -49 107 -49q73 0 120 59q45 54 45 128q0 93 -47 149.5t-123 55.5q-67 -1 -109.5 -57
t-42.5 -148zM357 624h-86l-143 177h117z" />
    <glyph glyph-name="oacute" unicode="&#xf3;" horiz-adv-x="610" 
d="M350 815h115l-148 -184h-86zM54 274q0 138 73 218q67 75 180 74q126 -1 194 -82q63 -76 63 -210q0 -127 -63 -200q-68 -80 -194 -80q-80 0 -140.5 40t-90.5 113q-22 53 -22 127zM150 274q0 -83 50 -138q45 -49 107 -49q73 0 120 59q45 54 45 128q0 93 -47 149.5
t-123 55.5q-67 -1 -109.5 -57t-42.5 -148z" />
    <glyph glyph-name="ocircumflex" unicode="&#xf4;" horiz-adv-x="619" 
d="M64 274q0 138 73 218q67 75 180 74q126 -1 194 -82q63 -76 63 -210q0 -127 -63 -200q-68 -80 -194 -80q-80 0 -140.5 40t-90.5 113q-22 53 -22 127zM160 274q0 -83 50 -138q45 -49 107 -49q73 0 120 59q45 54 45 128q0 93 -47 149.5t-123 55.5q-67 -1 -109.5 -57
t-42.5 -148zM499 646q-66 0 -121 27q-41 20 -60 44q-26 -26 -70 -47q-54 -25 -111 -25v77q49 0 107 37q54 35 54 50v-1l24 37l20 -40q6 -28 56.5 -55t100.5 -27v-77z" />
    <glyph glyph-name="otilde" unicode="&#xf5;" horiz-adv-x="617" 
d="M274 746q25 0 57 -14q26 -13 53 -26q15 -8 28 -8q19 0 39 34l48 -34q-40 -60 -87 -60q-29 0 -72.5 23t-62.5 23q-26 0 -58 -43l-46 36q49 68 101 69zM61 274q0 138 73 218q67 75 180 74q126 -1 194 -82q63 -76 63 -210q0 -127 -63 -200q-68 -80 -194 -80q-80 0 -140.5 40
t-90.5 113q-22 53 -22 127zM157 274q0 -83 50 -138q45 -49 107 -49q73 0 120 59q45 54 45 128q0 93 -47 149.5t-123 55.5q-67 -1 -109.5 -57t-42.5 -148z" />
    <glyph glyph-name="odieresis" unicode="&#xf6;" horiz-adv-x="617" 
d="M386 678q0 18 12.5 30.5t30.5 12.5t31 -12.5t13 -30.5t-13 -31t-31 -13t-30.5 13t-12.5 31zM160 676q0 18 12.5 31t30.5 13t31 -13t13 -31t-13 -30.5t-31 -12.5q-17 0 -30 13t-13 30zM62 274q0 138 73 218q67 75 180 74q126 -1 194 -82q63 -76 63 -210q0 -127 -63 -200
q-68 -80 -194 -80q-80 0 -140.5 40t-90.5 113q-22 53 -22 127zM158 274q0 -83 50 -138q45 -49 107 -49q73 0 120 59q45 54 45 128q0 93 -47 149.5t-123 55.5q-67 -1 -109.5 -57t-42.5 -148z" />
    <glyph glyph-name="divide" unicode="&#xf7;" horiz-adv-x="702" 
d="M55 379h491v-90h-491v90zM250 519q0 23 15.5 38.5t38.5 15.5q22 0 37.5 -16t15.5 -38q0 -21 -16 -37t-37 -16q-22 0 -38 15.5t-16 37.5zM247 137q0 22 15.5 38t37.5 16q23 0 38.5 -15.5t15.5 -38.5q0 -22 -16 -37.5t-38 -15.5q-21 0 -37 16t-16 37z" />
    <glyph glyph-name="oslash" unicode="&#xf8;" horiz-adv-x="621" 
d="M69 274q0 138 70 223q66 80 165 80q49 0 91 -19l21 42l64 -9l-32 -66q96 -80 96 -251q0 -130 -54 -201q-60 -79 -186 -79q-59 0 -105 23l-19 -39l-64 10l31 64q-78 76 -78 222zM440 274q0 99 -41 152l-155 -317q25 -16 60 -16q73 0 109 59q27 46 27 122zM174 274
q0 -69 25 -117l152 310q-20 10 -47 10q-57 0 -93.5 -55.5t-36.5 -147.5z" />
    <glyph glyph-name="ugrave" unicode="&#xf9;" horiz-adv-x="624" 
d="M97 351q0 73 -21 102q-10 13 -21 19l-20 11l50 92q75 -24 98 -89q10 -28 10 -74l1 -209q6 -67 26 -91q23 -29 85 -29q65 0 140 53v254q0 81 21 119q18 33 72 68l48 -90q-37 -21 -42 -74q-3 -23 -3 -57v-365h-96v67q-83 -62 -165 -62q-93 0 -140 57q-43 53 -43 148v150z
M400 569h-86l-143 177h117z" />
    <glyph glyph-name="uacute" unicode="&#xfa;" horiz-adv-x="606" 
d="M376 732h111l-163 -163h-81zM88 351q0 73 -21 102q-10 13 -21 19l-20 11l50 92q75 -24 98 -89q10 -28 10 -74l1 -209q6 -67 26 -91q23 -29 85 -29q65 0 140 53v254q0 81 21 119q18 33 72 68l48 -90q-37 -21 -42 -74q-3 -23 -3 -57v-365h-96v67q-83 -62 -165 -62
q-93 0 -140 57q-43 53 -43 148v150z" />
    <glyph glyph-name="ucircumflex" unicode="&#xfb;" horiz-adv-x="615" 
d="M97 351q0 73 -21 102q-10 13 -21 19l-20 11l50 92q75 -24 98 -89q10 -28 10 -74l1 -209q6 -67 26 -91q23 -29 85 -29q65 0 140 53v254q0 81 21 119q18 33 72 68l48 -90q-37 -21 -42 -74q-3 -23 -3 -57v-365h-96v67q-83 -62 -165 -62q-93 0 -140 57q-43 53 -43 148v150z
M485 662q-66 0 -121 27q-41 20 -60 44q-26 -26 -70 -47q-54 -25 -111 -25v77q49 0 107 37q54 35 54 50v-1l24 37l20 -40q6 -28 56.5 -55t100.5 -27v-77z" />
    <glyph glyph-name="udieresis" unicode="&#xfc;" horiz-adv-x="603" 
d="M412 663q0 18 13 31t31 13t31 -13t13 -31t-13 -31t-31 -13t-31 13t-13 31zM142 662q0 18 13 31t31 13t31 -13t13 -31t-13 -31t-31 -13t-31 13t-13 31zM94 351q0 73 -21 102q-10 13 -21 19l-20 11l50 92q75 -24 98 -89q10 -28 10 -74l1 -209q6 -67 26 -91q23 -29 85 -29
q65 0 140 53v254q0 81 21 119q18 33 72 68l48 -90q-37 -21 -42 -74q-3 -23 -3 -57v-365h-96v67q-83 -62 -165 -62q-93 0 -140 57q-43 53 -43 148v150z" />
    <glyph glyph-name="yacute" unicode="&#xfd;" horiz-adv-x="596" 
d="M384 721h111l-169 -187h-84zM565 560q-13 -107 -46 -321q-38 -209 -103 -322q-84 -146 -226 -146h-24q-30 0 -51 6l-12 95q7 -1 14 -1h15q107 0 154 45q35 33 88 153q-41 -12 -80 -12q-89 0 -138 53t-51 141q-2 68 -3 94q-4 55 -12 92q-12 51 -39 61l47 93q17 -12 35 -23
q15 -12 28 -33q38 -62 38 -206v-35q0 -64 22 -105q27 -54 85 -54q64 0 90 32q29 117 49 297q5 45 13 96h107z" />
    <glyph glyph-name="ydieresis" unicode="&#xff;" horiz-adv-x="622" 
d="M570 560q-13 -107 -46 -321q-38 -209 -103 -322q-84 -146 -226 -146h-24q-30 0 -51 6l-12 95q7 -1 14 -1h15q107 0 154 45q35 33 88 153q-41 -12 -80 -12q-89 0 -138 53t-51 141q-2 68 -3 94q-4 55 -12 92q-12 51 -39 61l47 93q17 -12 35 -23q15 -12 28 -33
q38 -62 38 -206v-35q0 -64 22 -105q27 -54 85 -54q64 0 90 32q29 117 49 297q5 45 13 96h107zM398 661q0 18 13 31t31 13q19 0 32 -12.5t13 -31.5t-13 -32t-32 -13t-31.5 13t-12.5 32zM138 660q0 19 13 31.5t32 12.5q18 0 31 -13t13 -31q0 -19 -12.5 -32t-31.5 -13t-32 13
t-13 32z" />
    <glyph glyph-name="OE" unicode="&#x152;" horiz-adv-x="890" 
d="M39 348q-1 136 61 236q73 117 204 117q72 0 114 -15v4q48 0 95 0.5t87 1.5l70 1h43q39 1 65 12q2 0 7 4.5t9 4.5l47 -81q-40 -33 -63 -34q-8 -1 -18 -3h-241q1 -23 1 -41v-34v-57q-1 -37 -1 -56h231v-104h-231l-3 -75q-1 -27 -4 -79q-2 -14 -5 -31q8 -5 26 -13.5t56 -8.5
h225v-96q-50 0 -149 -2h-50q-71 0 -149 33q-54 -34 -141 -34q-98 0 -169 58q-66 55 -96 151q-20 65 -21 141zM418 542q-42 58 -108 58q-73 0 -116 -64t-48 -171q-1 -21 -1 -25q0 -72 35 -143q45 -93 130 -93q59 0 103 48q6 41 6 69z" />
    <glyph glyph-name="oe" unicode="&#x153;" horiz-adv-x="992" 
d="M60 274q0 138 70 223q66 80 165 80q125 0 190 -107q73 96 198 96q123 0 194 -83q65 -78 65 -199v-22q0 -12 -1 -22h-407q-1 -13 -4 -38q14 -56 67 -85q44 -24 108 -24q82 0 143 59l27 -96q-71 -64 -183 -64q-120 0 -204 92q-60 -90 -193 -90q-159 0 -215 153
q-20 53 -20 127zM165 274q0 -74 27 -122q34 -59 103 -59q87 0 118 79q9 23 13 48q-4 28 -4 55q0 18 5 53q-10 62 -39 101q-36 48 -93 48t-93.5 -55.5t-36.5 -147.5zM676 468q-74 0 -122 -62q-17 -22 -26 -55l2 -7v-4h319q-15 70 -63 102q-40 26 -103 26h-7z" />
    <glyph glyph-name="Scaron" unicode="&#x160;" horiz-adv-x="585" 
d="M72 923h85l144 -111l128 111h83l-211 -188zM542 210q0 -41 -20 -85q-38 -80 -136 -113q-49 -17 -111 -17q-96 0 -183 20q-26 6 -40 13v101h7q59 -32 169 -37q30 -2 57 -2q110 0 154 75q12 21 12 44q0 56 -50 80q-27 13 -99 24q-110 15 -165 51q-75 47 -88 154
q7 148 147 201q47 18 110 18q124 0 191 -40v-113h-4q-74 60 -196 60q-48 0 -99 -31q-57 -35 -57 -81q0 -56 61 -80q35 -14 91 -26q47 -11 94 -21q72 -18 112 -67q42 -53 43 -128z" />
    <glyph glyph-name="scaron" unicode="&#x161;" horiz-adv-x="536" 
d="M48 792h85l144 -111l128 111h83l-211 -188zM486 166q0 -80 -68.5 -125.5t-186.5 -45.5q-135 0 -178 22v104h5q73 -34 200 -34t127 63v14q0 39 -40 53q-28 9 -78 19q-57 11 -79 17q-125 36 -138 150q21 117 131 155q40 13 96 13q102 0 184 -41v-100h-5q-66 49 -186 49
q-80 0 -111 -39q-9 -12 -9 -25q0 -39 35 -56q16 -7 70 -16q38 -7 93 -21q64 -23 100 -59q38 -39 38 -97z" />
    <glyph glyph-name="Ydieresis" unicode="&#x178;" horiz-adv-x="528" 
d="M508 726q-15 -115 -50 -343q-33 -188 -87 -280q-67 -116 -180 -116h-4q-3 1 -4 1l4 100q67 3 110 89q22 46 33 87q5 19 8 29q-30 -7 -50 -7q-60 0 -112 34q-73 47 -75 149q-1 78 -23 125q-15 31 -32 34l26 101q45 -5 78 -58q42 -67 46 -191q1 -41 26.5 -67t65.5 -26
q38 0 73 23l46 316h101zM362 852q0 18 13 31t31 13q19 0 32 -12.5t13 -31.5t-13 -32t-32 -13t-31.5 13t-12.5 32zM102 851q0 19 13 31.5t32 12.5q18 0 31 -13t13 -31q0 -19 -12.5 -32t-31.5 -13t-32 13t-13 32z" />
    <glyph glyph-name="Zcaron" unicode="&#x17d;" horiz-adv-x="663" 
d="M111 923h85l144 -111l128 111h83l-211 -188zM630 57q-27 -45 -132 -57q-38 -4 -153 -4h-72q-47 1 -71 1h-161q60 89 120 180l208 314q42 63 66 98h-366v107h543l-227 -352q-51 -81 -157 -238h222q71 0 97 23q8 7 17 17z" />
    <glyph glyph-name="zcaron" unicode="&#x17e;" horiz-adv-x="559" 
d="M59 792h85l144 -111l128 111h83l-211 -188zM513 45q-21 -32 -91 -42q-32 -4 -105 -4h-76q-51 1 -76 1h-142q51 71 105 144l186 250q37 50 55 77h-286v89h474q-100 -138 -208 -280l-85 -111q-37 -49 -55 -74h32h46q31 -1 47 -1h31q19 0 51 6q39 7 50 20z" />
    <glyph glyph-name="florin" unicode="&#x192;" horiz-adv-x="460" 
d="M133 463q0 131 67 200q59 61 159 61q31 0 63 -6l-14 -86q-24 6 -48 6q-66 0 -102 -44q-32 -40 -32 -108v-11q0 -6 1 -12h149v-76h-149v-132q0 -17 1 -51v-51q0 -154 -24 -240q-34 -123 -126 -123h-8q-4 0 -8 1l-51 53q78 0 107 96q20 69 20 190v68l-2 118q-1 30 -1 71
h-103v76h101z" />
    <glyph glyph-name="circumflex" unicode="&#x2c6;" horiz-adv-x="373" 
d="M369 622q-66 0 -121 27q-41 20 -60 44q-26 -26 -70 -47q-54 -25 -111 -25v77q49 0 107 37q54 35 54 50v-1l24 37l20 -40q6 -28 56.5 -55t100.5 -27v-77z" />
    <glyph glyph-name="tilde" unicode="&#x2dc;" horiz-adv-x="361" 
d="M122 683q25 0 55 -12q25 -12 51 -24q14 -7 27 -7q17 0 37 30l47 -30q-38 -54 -84 -54q-26 0 -69.5 20.5t-60.5 20.5q-27 0 -56 -38l-45 32q46 61 98 62z" />
    <glyph glyph-name="endash" unicode="&#x2013;" horiz-adv-x="629" 
d="M65 364h470v-103h-470v103z" />
    <glyph glyph-name="emdash" unicode="&#x2014;" horiz-adv-x="865" 
d="M65 364h721v-103h-721v103z" />
    <glyph glyph-name="quoteleft" unicode="&#x2018;" horiz-adv-x="197" 
d="M164 543q-35 -10 -59 -10q-73 0 -73 75q0 67 30 109q10 14 28 30q28 25 31 28l36 -24q-58 -66 -58 -104q0 -22 34 -22q17 0 20 3v-1z" />
    <glyph glyph-name="quoteright" unicode="&#x2019;" horiz-adv-x="190" 
d="M26 750q35 10 58 10q74 0 74 -75q0 -67 -30 -109q-10 -14 -28 -30q-28 -25 -31 -28l-36 24q58 68 58 103q0 23 -36 23q-16 0 -18 -3v1z" />
    <glyph glyph-name="quotesinglbase" unicode="&#x201a;" horiz-adv-x="193" 
d="M26 119q35 10 58 10q74 0 74 -75q0 -67 -30 -109q-10 -14 -28 -30q-28 -25 -31 -28l-36 24q58 68 58 103q0 23 -36 23q-16 0 -18 -3v1z" />
    <glyph glyph-name="quotedblleft" unicode="&#x201c;" horiz-adv-x="394" 
d="M367 543q-35 -10 -59 -10q-73 0 -73 75q0 67 30 109q10 14 28 30q28 25 31 28l36 -24q-58 -66 -58 -104q0 -22 34 -22q17 0 20 3v-1zM164 543q-35 -10 -59 -10q-73 0 -73 75q0 67 30 109q10 14 28 30q28 25 31 28l36 -24q-58 -66 -58 -104q0 -22 34 -22q17 0 20 3v-1z
" />
    <glyph glyph-name="quotedblright" unicode="&#x201d;" horiz-adv-x="424" 
d="M246 750q35 10 58 10q74 0 74 -75q0 -67 -30 -109q-10 -14 -28 -30q-28 -25 -31 -28l-36 24q58 68 58 103q0 23 -36 23q-16 0 -18 -3v1zM26 750q35 10 58 10q74 0 74 -75q0 -67 -30 -109q-10 -14 -28 -30q-28 -25 -31 -28l-36 24q58 68 58 103q0 23 -36 23q-16 0 -18 -3
v1z" />
    <glyph glyph-name="quotedblbase" unicode="&#x201e;" horiz-adv-x="416" 
d="M250 119q35 10 58 10q74 0 74 -75q0 -67 -30 -109q-10 -14 -28 -30q-28 -25 -31 -28l-36 24q58 68 58 103q0 23 -36 23q-16 0 -18 -3v1zM30 119q35 10 58 10q74 0 74 -75q0 -67 -30 -109q-10 -14 -28 -30q-28 -25 -31 -28l-36 24q58 68 58 103q0 23 -36 23q-16 0 -18 -3
v1z" />
    <glyph glyph-name="dagger" unicode="&#x2020;" 
d="M33 530h117v199h98v-199h117v-95h-117v-468h-98v468h-117v95z" />
    <glyph glyph-name="daggerdbl" unicode="&#x2021;" 
d="M1 548h149v181h98v-181h150v-83h-150v-249h150v-83h-150v-166h-98v166h-149v83h149v249h-149v83z" />
    <glyph glyph-name="bullet" unicode="&#x2022;" horiz-adv-x="341" 
d="M78 382q0 37 25.5 63t62.5 26t63 -26t26 -63t-26 -62.5t-63 -25.5t-62.5 25.5t-25.5 62.5z" />
    <glyph glyph-name="guilsinglleft" unicode="&#x2039;" horiz-adv-x="473" 
d="M25 376l411 319v-111l-278 -208l278 -236v-112z" />
    <glyph glyph-name="guilsinglright" unicode="&#x203a;" horiz-adv-x="453" 
d="M28 28v112l278 236l-278 208v111l411 -319z" />
    <glyph glyph-name="trademark" unicode="&#x2122;" horiz-adv-x="754" 
d="M346 658q-23 -18 -90 -18q-33 0 -48 4v-217q0 -66 -21 -91q-8 -9 -19 -15q-19 -9 -21 -11l-20 53q21 18 26 36q3 11 3 45v199q-22 2 -43 2q-50 0 -72 -16l-24 47q31 26 100 26q19 0 35 -1l32 -3q36 -4 74 -4q53 0 63 8zM630 653q15 -114 36 -189.5t35 -85.5l-21 -65
q-23 7 -36 39q-18 41 -48 189q-22 -35 -68 -103l-21 66l117 195zM507 504l-22 -66q-19 34 -61 100q-13 -68 -20 -95q-13 -58 -28 -90.5t-37 -39.5l-15 67q14 10 29 91q4 21 25 182l6 46zM507 504l21 -66q-7 -11 -21 -32q-12 16 -22 32z" />
    <glyph glyph-name="minus" unicode="&#xad;" horiz-adv-x="567" 
d="M55 379h446v-99h-446v99z" />
    <glyph glyph-name="minus" unicode="&#x2212;" horiz-adv-x="567" 
d="M55 379h446v-99h-446v99z" />
    <glyph glyph-name="uni00A0" unicode="&#xa0;" 
 />
    <glyph glyph-name="Euro" unicode="&#x20ac;" horiz-adv-x="572" 
d="M34 445h80q21 113 79 181q62 71 145 71q109 0 176 -124l-58 -44q-35 78 -118 78q-102 0 -132 -162h250v-59h-257q-1 -10 -1 -19v-19q0 -27 2 -53h242v-57h-233q33 -154 129 -154q68 0 111 65l50 -30l10 -7q-68 -111 -176 -111q-79 0 -138 66.5t-79 170.5h-96v57h88
q-2 26 -2 53v19q0 9 1 19h-73v59z" />
  </font>
</defs>
</svg>
